<svg id="Capa_1" enable-background="new 0 0 512 512" height="50" viewBox="0 0 512 512" width="50" xmlns="http://www.w3.org/2000/svg"><g><g><path d="m432.376 504.5h-352.752c-2.761 0-5-2.239-5-5v-169.986c0-19.33 15.67-35 35-35h292.752c19.33 0 35 15.67 35 35v169.986c0 2.761-2.239 5-5 5z" fill="#7a6d79"/></g><g><path d="m121 499.5v-169.986c0-19.33 15.67-35 35-35h-46.376c-19.33 0-35 15.67-35 35v169.986c0 2.761 2.239 5 5 5h46.376c-2.761 0-5-2.239-5-5z" fill="#685e68"/></g><g><path d="m347.887 272.379-42.297-34.335c-6.94 3.648-14.837 5.722-23.222 5.722h-52.738c-8.645 0-16.776-2.195-23.869-6.056l-41.694 34.662c-1.99 1.654-2.389 4.552-.921 6.682l29.535 42.857 9.15-5.44c-.453-.743-.722-1.624-.722-2.598v-46.525c0-3.849 4.167-6.255 7.5-4.33l30.059 17.354c3.508-5.925 9.947-9.91 17.332-9.91s13.823 3.985 17.332 9.91l30.059-17.354c3.333-1.924 7.5.481 7.5 4.33v46.525c0 1.163-.385 2.19-1.007 3.01l9.236 5.362 29.735-43.147c1.479-2.148 1.058-5.074-.968-6.719z" fill="#554e56"/></g><g><path d="m347.095 338.488-37.213-21.605c-1.438 1.894-4.166 2.663-6.493 1.32l-30.059-17.354c-3.508 5.925-9.947 9.911-17.332 9.911s-13.824-3.986-17.332-9.911l-30.059 17.354c-2.489 1.437-5.442.458-6.778-1.732l-36.998 21.999c-2.372 1.41-3.153 4.476-1.745 6.849l92.914 159.181 92.884-159.136c1.419-2.391.616-5.48-1.789-6.876z" fill="#554e56"/></g><g><path d="m242.648 437.82-49.614-85.001c-1.409-2.373-.628-5.439 1.745-6.85l26.34-15.662-3.469-17.324-9.04 5.219c-2.489 1.437-5.442.458-6.778-1.732l-36.998 21.998c-2.372 1.41-3.153 4.476-1.745 6.849l92.911 159.182z" fill="#433f43"/></g><g><path d="m238.668 280.372c3.508-5.925 9.947-9.91 17.332-9.91s13.823 3.985 17.332 9.91l17.273-9.973v-27.321c-2.681.444-5.429.687-8.236.687h-52.738c-2.807 0-5.555-.243-8.236-.687v27.322z" fill="#d88a55"/></g><g><path d="m238.668 280.372c2.857-4.826 7.654-8.366 13.332-9.51v-27.096h-22.369c-2.807 0-5.555-.243-8.236-.687v27.321z" fill="#c57a44"/></g><g><g><g><path d="m460.895 207.386c-15.274 5.051-20.936 10.713-25.987 25.987-.717 2.17-3.805 2.17-4.522 0-5.051-15.274-10.713-20.936-25.987-25.987-2.17-.717-2.17-3.805 0-4.522 15.274-5.051 20.936-10.713 25.987-25.987.717-2.17 3.805-2.17 4.522 0 5.051 15.274 10.713 20.936 25.987 25.987 2.17.717 2.17 3.804 0 4.522z" fill="#fed402"/></g></g><g><g><path d="m419.179 195.524c-3.686 2.991-8.383 5.224-14.78 7.34-2.17.717-2.17 3.805 0 4.522 15.274 5.051 20.936 10.713 25.987 25.987.717 2.17 3.805 2.17 4.522 0 2.115-6.397 4.349-11.094 7.34-14.78-4.628-12.94-10.129-18.441-23.069-23.069z" fill="#fac600"/></g></g><g><g><path d="m107.601 133.314c-15.274 5.051-20.936 10.713-25.987 25.987-.717 2.17-3.805 2.17-4.522 0-5.051-15.274-10.713-20.936-25.987-25.987-2.17-.717-2.17-3.805 0-4.522 15.274-5.051 20.936-10.713 25.987-25.987.717-2.17 3.805-2.17 4.522 0 5.051 15.274 10.713 20.936 25.987 25.987 2.17.717 2.17 3.804 0 4.522z" fill="#fed402"/></g></g><g><g><path d="m63.849 122.954c-3.354 2.263-7.465 4.092-12.744 5.837-2.17.717-2.17 3.805 0 4.522 15.274 5.051 20.936 10.713 25.987 25.987.718 2.17 3.805 2.17 4.522 0 1.745-5.278 3.575-9.39 5.837-12.744-4.703-13.35-10.252-18.898-23.602-23.602z" fill="#fac600"/></g></g></g><path d="m273.332 300.849c-3.508 5.925-9.947 9.91-17.332 9.91s-13.823-3.985-17.332-9.91l-21.018 12.135 38.35 191.516 38.35-191.516z" fill="#fff"/><g><path d="m238.668 300.848c0 .001 0 .001 0 0l-21.018 12.135 38.35 191.517 15.476-77.286-23.67-118.208c-3.83-1.708-7.017-4.576-9.138-8.158z" fill="#f3f0f3"/></g><g><g><path d="m235.851 290.611c0-3.743 1.039-7.235 2.817-10.238l-30.059-17.354c-3.333-1.924-7.5.481-7.5 4.33v46.525c0 3.849 4.167 6.255 7.5 4.33l30.059-17.354c-1.778-3.004-2.817-6.496-2.817-10.239z" fill="#fd4755"/><path d="m303.39 263.018-30.059 17.354c1.778 3.003 2.817 6.495 2.817 10.238s-1.039 7.235-2.817 10.238l30.059 17.354c3.333 1.925 7.5-.481 7.5-4.33v-46.525c0-3.848-4.167-6.253-7.5-4.329z" fill="#fb2b3a"/></g><g><circle cx="256" cy="290.611" fill="#fd4755" r="20.149"/></g><g><path d="m251 290.611c0-8.447 5.203-15.669 12.574-18.664-2.34-.951-4.893-1.485-7.574-1.485-11.128 0-20.149 9.021-20.149 20.149s9.021 20.149 20.149 20.149c2.681 0 5.235-.535 7.574-1.485-7.371-2.996-12.574-10.218-12.574-18.664z" fill="#fb2b3a"/></g></g><g><g><path d="m165.253 128.02h14.378v-21.31c0-10.406 5.3-19.572 13.345-24.953-9.484-8.921-17.307-19.508-23.061-31.255-9.887 10.66-15.94 24.926-15.94 40.612v39.596c3.39-1.717 7.22-2.69 11.278-2.69z" fill="#883f2e"/><path d="m160.352 20.694c4.02 24.122 15.987 45.719 33.388 61.774 4.568-3.004 10.027-4.759 15.891-4.759h92.738c15.99 0 29 13.009 29 29v22.31h15.377c4.074 0 7.913 1.024 11.278 2.823v-60.847c0-35.067-28.427-63.495-63.495-63.495h-123c-7.002 0-12.329 6.288-11.177 13.194z" fill="#883f2e"/><g><path d="m192.977 81.757c4.765-3.187 10.492-5.047 16.655-5.047h9.299c-14.261-15.302-24.044-34.669-27.602-56.015-1.153-6.907 4.174-13.195 11.176-13.195h-30.976c-7.002 0-12.328 6.288-11.177 13.194 3.961 23.768 15.637 45.083 32.625 61.063z" fill="#6d3326"/></g></g><g fill="#d88a55"><path d="m179.631 128.02h-14.378c-13.807 0-25 11.193-25 25v14.436c0 13.807 11.193 25 25 25h14.378z"/><path d="m346.747 128.02h-14.378v64.436h14.378c13.807 0 25-11.193 25-25v-14.436c0-13.808-11.193-25-25-25z"/></g><g><path d="m282.369 243.766h-52.738c-27.614 0-50-22.386-50-50v-87.057c0-16.569 13.431-30 30-30h92.738c16.569 0 30 13.431 30 30v87.057c0 27.614-22.386 50-50 50z" fill="#f6a96c"/></g><g><path d="m210.262 193.766v-87.057c0-16.569 13.432-30 30-30h-30.631c-16.568 0-30 13.431-30 30v87.057c0 27.614 22.386 50 50 50h30.631c-27.614 0-50-22.386-50-50z" fill="#d88a55"/></g></g><g><path d="m401.351 466.316h-68.979c-2.761 0-5-2.239-5-5v-19.832c0-2.761 2.239-5 5-5h68.979c2.761 0 5 2.239 5 5v19.832c0 2.761-2.238 5-5 5z" fill="#554e56"/></g><g><path d="m358.021 461.316v-19.832c0-2.761 2.239-5 5-5h-30.649c-2.761 0-5 2.239-5 5v19.832c0 2.761 2.239 5 5 5h30.649c-2.761 0-5-2.239-5-5z" fill="#433f43"/></g><g><path d="m463.249 195.743c-12.966-4.288-16.933-8.254-21.221-21.222-1.34-4.05-5.109-6.772-9.381-6.772s-8.042 2.722-9.383 6.773c-4.287 12.966-8.254 16.933-21.222 21.221-4.051 1.34-6.772 5.11-6.772 9.382s2.722 8.042 6.773 9.382c12.967 4.288 16.934 8.254 21.222 21.222 1.34 4.05 5.109 6.772 9.382 6.772 4.271 0 8.041-2.722 9.382-6.773 4.287-12.966 8.254-16.933 21.22-21.221h.001c4.051-1.34 6.772-5.11 6.772-9.382s-2.721-8.042-6.773-9.382zm-30.603 23.768c-3.538-6.385-8.001-10.849-14.387-14.387 6.387-3.539 10.849-8 14.388-14.387 3.538 6.385 8 10.848 14.386 14.387-6.386 3.54-10.847 8.001-14.387 14.387z"/><path d="m79.353 168.428c4.272 0 8.042-2.722 9.383-6.773 4.287-12.967 8.254-16.933 21.221-21.22h.001c4.051-1.34 6.772-5.111 6.772-9.383-.001-4.272-2.723-8.042-6.773-9.381-12.967-4.288-16.934-8.254-21.222-21.223-1.34-4.05-5.11-6.771-9.382-6.771-4.271 0-8.041 2.721-9.382 6.772-4.287 12.967-8.254 16.933-21.219 21.221-4.052 1.339-6.773 5.109-6.774 9.381 0 4.272 2.722 8.043 6.773 9.383 12.966 4.288 16.933 8.254 21.221 21.222 1.34 4.051 5.109 6.772 9.381 6.772zm.001-51.762c3.538 6.386 8.001 10.848 14.387 14.387-6.386 3.538-10.849 8-14.388 14.387-3.538-6.387-8-10.848-14.386-14.387 6.387-3.539 10.847-8.001 14.387-14.387z"/><path d="m112.468 232.436v4.433h-4.433c-4.143 0-7.5 3.358-7.5 7.5s3.357 7.5 7.5 7.5h4.433v4.433c0 4.142 3.357 7.5 7.5 7.5s7.5-3.358 7.5-7.5v-4.433h4.433c4.143 0 7.5-3.358 7.5-7.5s-3.357-7.5-7.5-7.5h-4.433v-4.433c0-4.142-3.357-7.5-7.5-7.5s-7.5 3.358-7.5 7.5z"/><path d="m388.452 72.879h4.433v4.433c0 4.142 3.357 7.5 7.5 7.5s7.5-3.358 7.5-7.5v-4.433h4.433c4.143 0 7.5-3.358 7.5-7.5s-3.357-7.5-7.5-7.5h-4.433v-4.433c0-4.142-3.357-7.5-7.5-7.5s-7.5 3.358-7.5 7.5v4.433h-4.433c-4.143 0-7.5 3.358-7.5 7.5s3.358 7.5 7.5 7.5z"/><path d="m402.376 287.014h-49.869l2.522-3.66c3.676-5.334 2.615-12.712-2.415-16.798l-34.374-27.904c11.655-9.326 19.605-23.083 21.286-38.697h7.22c17.921 0 32.5-14.58 32.5-32.5v-14.435c0-10.928-5.427-20.606-13.722-26.501v-55.524c0-39.147-31.848-70.995-70.995-70.995h-123c-5.547 0-10.784 2.427-14.369 6.66-3.586 4.232-5.118 9.797-4.206 15.268 1.591 9.546 4.359 18.733 8.161 27.392-9.148 11.486-14.64 26.004-14.64 41.795v35.405c-8.295 5.895-13.722 15.573-13.722 26.501v14.436c0 17.92 14.579 32.5 32.5 32.5h7.22c1.659 15.417 9.432 29.024 20.848 38.343l-34.05 28.306c-5.006 4.162-5.996 11.344-2.302 16.706l2.553 3.704h-49.899c-23.435 0-42.5 19.065-42.5 42.5v169.984c0 6.893 5.607 12.5 12.5 12.5h352.752c6.893 0 12.5-5.607 12.5-12.5v-58.5c0-4.142-3.357-7.5-7.5-7.5s-7.5 3.358-7.5 7.5v56h-160.813l86.273-147.808c1.715-2.891 2.193-6.275 1.348-9.528-.847-3.253-2.914-5.974-5.821-7.662l-20.968-12.174 12.276-17.814h60.207c15.163 0 27.5 12.336 27.5 27.5v76.486c0 4.142 3.357 7.5 7.5 7.5s7.5-3.358 7.5-7.5v-76.486c-.001-23.434-19.066-42.5-42.501-42.5zm-119.631-3.416 20.645-11.92v37.865l-20.645-11.92c.588-2.241.904-4.59.904-7.013-.001-2.422-.316-4.772-.904-7.012zm-7.617-12.923c-4.971-4.771-11.71-7.713-19.128-7.713s-14.157 2.942-19.128 7.713l-7.977-4.605v-14.822c.246.003.489.019.735.019h52.738c.247 0 .49-.016.735-.019v14.822zm-6.48 19.935c0 6.975-5.674 12.649-12.648 12.649s-12.648-5.674-12.648-12.649 5.674-12.648 12.648-12.648 12.648 5.674 12.648 12.648zm-39.393 7.013-20.645 11.92v-37.865l20.645 11.92c-.588 2.24-.904 4.59-.904 7.012.001 2.423.316 4.773.904 7.013zm-16.907 27.081 27.474 137.201-69.024-118.256 30.602-18.196c1.518.625 3.113.939 4.71.939 2.142.001 4.285-.562 6.238-1.688zm151.898-157.248c0 9.649-7.851 17.5-17.5 17.5h-6.877v-49.436h6.877c9.649 0 17.5 7.851 17.5 17.5zm-202.77-76.342c0-9.854 2.755-19.071 7.519-26.944 3.822 6.111 8.195 11.854 13.072 17.148-6.162 6.685-9.935 15.604-9.935 25.391v13.811h-6.877c-1.279 0-2.538.082-3.778.227v-29.633zm-13.722 76.342v-14.436c0-9.649 7.851-17.5 17.5-17.5h6.877v49.436h-6.877c-9.65 0-17.5-7.851-17.5-17.5zm39.377 26.31v-87.057c0-12.407 10.094-22.5 22.5-22.5h51.369c4.143 0 7.5-3.358 7.5-7.5s-3.357-7.5-7.5-7.5h-51.369c-5.447 0-10.622 1.177-15.297 3.275-13.75-14.398-23.211-32.781-26.585-53.023-.254-1.523.428-2.6.856-3.106s1.378-1.355 2.924-1.355h123c30.876 0 55.995 25.119 55.995 55.995v49.752c-1.24-.144-2.5-.227-3.778-.227h-6.877v-13.811c0-20.678-16.822-37.5-37.5-37.5h-6.369c-4.143 0-7.5 3.358-7.5 7.5s3.357 7.5 7.5 7.5h6.369c12.406 0 22.5 10.093 22.5 22.5v87.057c0 23.435-19.065 42.5-42.5 42.5h-52.738c-23.435 0-42.5-19.065-42.5-42.5zm19.739 52.776c2.271.983 4.615 1.83 7.025 2.518v8.35l-1.535-.886c-3.914-2.26-8.588-2.259-12.5 0-3.914 2.26-6.25 6.307-6.25 10.826v42.694l-22.992-33.363zm-124.746 250.458v-167.486c0-15.164 12.337-27.5 27.5-27.5h60.237l12.094 17.549-20.955 12.46c-5.918 3.52-7.875 11.201-4.389 17.077l86.327 147.9zm259.039-153.284-68.985 118.188 11.755-58.699c.813-4.062-1.82-8.013-5.882-8.827-4.06-.812-8.014 1.82-8.827 5.881l-13.224 66.043-29.939-149.514 10.811-6.242c4.971 4.771 11.71 7.713 19.128 7.713s14.157-2.942 19.128-7.713l10.811 6.242-9.839 49.135c-.813 4.062 1.82 8.013 5.882 8.827s8.014-1.819 8.827-5.881l8.844-44.164c1.954 1.125 4.095 1.689 6.238 1.689 1.402 0 2.799-.266 4.148-.748zm-22.773-33.631v-42.737c0-4.519-2.336-8.566-6.25-10.826-3.911-2.258-8.585-2.259-12.5 0l-1.535.886v-8.35c2.187-.623 4.319-1.376 6.391-2.244l36.87 29.93z"/><path d="m221.395 154.231c4.143 0 7.5-3.358 7.5-7.5v-19.085c0-4.142-3.357-7.5-7.5-7.5s-7.5 3.358-7.5 7.5v19.085c0 4.143 3.357 7.5 7.5 7.5z"/><path d="m290.604 154.231c4.143 0 7.5-3.358 7.5-7.5v-19.085c0-4.142-3.357-7.5-7.5-7.5s-7.5 3.358-7.5 7.5v19.085c0 4.143 3.358 7.5 7.5 7.5z"/><path d="m220.864 190.732c-2.929 2.929-2.929 7.678 0 10.606 9.688 9.687 22.411 14.53 35.136 14.53s25.448-4.843 35.136-14.53c2.929-2.929 2.929-7.677 0-10.606-2.93-2.929-7.679-2.929-10.606 0-13.525 13.524-35.533 13.524-49.059 0-2.928-2.928-7.677-2.928-10.607 0z"/><path d="m250.144 175.662c1.481 1.852 3.661 2.815 5.861 2.815 1.643 0 3.298-.538 4.681-1.644 3.234-2.587 3.759-7.307 1.171-10.542l-5.971-7.464 6.18-8.498c2.437-3.35 1.695-8.041-1.654-10.477-3.35-2.436-8.04-1.696-10.477 1.654l-9.546 13.126c-1.987 2.733-1.902 6.458.209 9.096z"/><path d="m332.372 428.984c-6.893 0-12.5 5.607-12.5 12.5v19.832c0 6.893 5.607 12.5 12.5 12.5h68.979c6.893 0 12.5-5.607 12.5-12.5v-19.832c0-6.893-5.607-12.5-12.5-12.5zm66.48 29.831h-63.979v-14.832h63.979z"/><circle cx="256" cy="338.5" r="7.5"/><circle cx="256" cy="380.5" r="7.5"/></g></g></svg>