<svg height="50" viewBox="0 0 256 256" width="50" xmlns="http://www.w3.org/2000/svg"><path d="m103.845 115.928h48.304v24.986h-48.304z" fill="#6377e7"/><path d="m113.336 93.116h29.322v44.986h-29.322z" fill="#f8af23"/><path d="m113.336 93.116h10.758v44.986h-10.758z" fill="#f87023"/><path d="m211.02 141.409a4.972 4.972 0 0 0 -3.318-2.265 26.745 26.745 0 0 0 -26.787-23.48l-28.766.265-17.877 14.407a10 10 0 0 1 -12.55 0l-17.877-14.407-28.766-.265a26.745 26.745 0 0 0 -26.787 23.481 4.985 4.985 0 0 0 -1.7 9.148l28.913 17.891a4.976 4.976 0 0 0 1.847.681l4.648 64.241h92l4.643-64.243a4.975 4.975 0 0 0 1.848-.681l28.909-17.89a5 5 0 0 0 1.62-6.883z" fill="#63bce7"/><path d="m91.508 166.182-28.908-17.89a4.985 4.985 0 0 1 1.7-9.148 26.75 26.75 0 0 1 24-23.359l-13.218-.122a26.745 26.745 0 0 0 -26.787 23.481 4.985 4.985 0 0 0 -1.7 9.148l28.913 17.891a4.976 4.976 0 0 0 1.847.681l4.645 64.242h16l-4.643-64.243a4.976 4.976 0 0 1 -1.849-.681z" fill="#6377e7"/><path d="m134.815 112.491h-13.636a26.667 26.667 0 0 1 -26.433-23.142l-2.915-21.858h72.332l-2.914 21.857a26.667 26.667 0 0 1 -26.434 23.143z" fill="#9e9e9e"/><path d="m110.746 89.349-2.914-21.857h-16l2.914 21.857a26.667 26.667 0 0 0 26.433 23.143h13.636c.4 0 .79-.01 1.182-.027a26.667 26.667 0 0 1 -25.251-23.116z" fill="#707070"/><path d="m116.8 16.974h22.4a24.964 24.964 0 0 1 24.964 24.964v22.579a7.154 7.154 0 0 1 -7.154 7.154h-58.025a7.154 7.154 0 0 1 -7.154-7.154v-22.579a24.964 24.964 0 0 1 24.969-24.964z" fill="#63bce7"/><path d="m107.831 64.517v-22.579a25.038 25.038 0 0 1 24.969-24.964h-16a25.038 25.038 0 0 0 -24.969 24.964v22.579a7.175 7.175 0 0 0 7.154 7.154h16a7.175 7.175 0 0 1 -7.154-7.154z" fill="#6377e7"/><path d="m128 13.921a6.735 6.735 0 0 1 6.735 6.735v34.335a0 0 0 0 1 0 0h-13.473a0 0 0 0 1 0 0v-34.336a6.735 6.735 0 0 1 6.738-6.734z" fill="#f46275"/><path d="m120.035 54.991h15.924a8.455 8.455 0 0 1 8.455 8.455v8.224a0 0 0 0 1 0 0h-32.833a0 0 0 0 1 0 0v-8.224a8.455 8.455 0 0 1 8.454-8.455z" fill="#f8af23"/><path d="m128 77.17a115.979 115.979 0 0 1 -38-6.17 5.5 5.5 0 1 1 3.649-10.38 104.868 104.868 0 0 0 34.351 5.55 104.852 104.852 0 0 0 34.348-5.551 5.5 5.5 0 0 1 3.644 10.381 115.971 115.971 0 0 1 -37.992 6.17z" fill="#f46275"/><path d="m102.637 63.985a5.517 5.517 0 0 1 .3-.679 91.776 91.776 0 0 1 -9.285-2.687 5.5 5.5 0 1 0 -3.652 10.381 115.979 115.979 0 0 0 38 6.17c2.682 0 5.348-.109 8-.279a112.984 112.984 0 0 1 -30-5.891 5.5 5.5 0 0 1 -3.363-7.015z" fill="#f43075"/><path d="m53.351 214.037a14 14 0 0 1 -12-6.793l-33.937-56.519 32.6-.105 6.755 11.249 2.414-11.978 25.4 15.717-7.5 37.194a14 14 0 0 1 -13.728 11.234z" fill="#f8af23"/><path d="m7.414 150.725 33.937 56.518a13.985 13.985 0 0 0 20 4.274 13.967 13.967 0 0 1 -4-4.274l-33.937-56.57z" fill="#f87023"/><path d="m35.067 117.526a4.944 4.944 0 0 0 -4.944 4.944v5.951h-11.665a11.043 11.043 0 0 0 -11.044 11.044v11.26l32.6-.105v-28.15a4.944 4.944 0 0 0 -4.947-4.944z" fill="#9e9e9e"/><path d="m34.458 128.421h5.553v-5.951a4.944 4.944 0 1 0 -9.888 0v5.951h-11.665a11.043 11.043 0 0 0 -11.044 11.044v11.26l16-.052v-11.208a11.043 11.043 0 0 1 11.044-11.044z" fill="#707070"/><path d="m202.649 214.037a14 14 0 0 0 12-6.793l33.938-56.518-32.6-.105-6.755 11.249-2.414-11.978-25.4 15.717 7.5 37.194a14 14 0 0 0 13.728 11.234z" fill="#f8af23"/><path d="m220.933 117.526a4.944 4.944 0 0 1 4.944 4.944v5.951h11.665a11.043 11.043 0 0 1 11.043 11.044v11.26l-32.6-.105v-28.15a4.944 4.944 0 0 1 4.948-4.944z" fill="#9e9e9e"/><path d="m75.047 115.664 19.493.179 14.343 42.421h-20z" fill="#f46275"/><path d="m180.752 115.664-19.492.179-14.344 42.421h20z" fill="#f46275"/><path d="m102.494 190.374a46.623 46.623 0 0 0 22.4 39.86 5.962 5.962 0 0 0 6.21 0 46.664 46.664 0 0 0 0-79.72 5.962 5.962 0 0 0 -6.21 0 46.623 46.623 0 0 0 -22.4 39.86z" fill="#f46275"/><path d="m146.36 165.518q-1.2-1.906-2.578-3.685a45.8 45.8 0 0 1 -31.542 0q-1.374 1.776-2.578 3.683a50.155 50.155 0 0 0 36.7 0z" fill="#f8af23"/><path d="m127.9 216.082a45.593 45.593 0 0 1 15.856 2.832q1.376-1.775 2.579-3.678a50.127 50.127 0 0 0 -36.7-.071q1.2 1.907 2.575 3.687a45.594 45.594 0 0 1 15.69-2.77z" fill="#f8af23"/><g fill="#3f3679"><path d="m250.086 139.465a12.558 12.558 0 0 0 -12.544-12.543h-10.165v-4.452a6.444 6.444 0 1 0 -12.888 0v27.73l-3.041 5.064-1.507 2.51-1.444-7.165 1.692-1.047a6.488 6.488 0 0 0 -1.145-11.605 28.3 28.3 0 0 0 -28.143-23.8l-28.766.265h-7.978v-2.05a28.269 28.269 0 0 0 18.578-22.832l2.218-16.636c.509-.17 1.032-.322 1.535-.5a6.992 6.992 0 0 0 -.826-13.431v-17.035a26.494 26.494 0 0 0 -26.462-26.464h-4.81a8.218 8.218 0 0 0 -12.784 0h-4.806a26.5 26.5 0 0 0 -26.469 26.464v17.037a7.04 7.04 0 0 0 -1.531.525 7 7 0 0 0 .709 12.915c.5.177 1.025.329 1.534.5l2.219 16.636a28.267 28.267 0 0 0 18.578 22.832v2.049h-7.979l-28.766-.265a28.251 28.251 0 0 0 -28.142 23.8 6.488 6.488 0 0 0 -1.144 11.606l1.7 1.05-1.443 7.162-1.507-2.51-3.048-5.075v-27.73a6.444 6.444 0 1 0 -12.888 0v4.451h-10.165a12.558 12.558 0 0 0 -12.544 12.544v11.26a1.5 1.5 0 0 0 .217.766v.006l33.938 56.518a15.5 15.5 0 0 0 28.48-4.915l7.1-35.175c.1.04.194.07.291.105l4.45 61.577h-71.07a1.5 1.5 0 0 0 0 3h237.36a1.5 1.5 0 0 0 0-3h-71.073l4.451-61.577c.1-.036.2-.066.3-.107l7.1 35.176a15.5 15.5 0 0 0 28.483 4.917l33.931-56.516v-.006a1.5 1.5 0 0 0 .217-.766zm-3 0v9.755l-10.356-.061a6.883 6.883 0 0 1 -6.875-6.875v-5.484a6.883 6.883 0 0 1 6.875-6.875h.813a9.554 9.554 0 0 1 9.543 9.54zm-26.152-20.439a3.448 3.448 0 0 1 3.443 3.444v5.951a1.5 1.5 0 0 0 1.5 1.5h3.783a9.832 9.832 0 0 0 -2.806 6.875v5.488a9.836 9.836 0 0 0 2.8 6.879l-12.17-.039v-26.654a3.448 3.448 0 0 1 3.45-3.444zm-66.771 22.489h16.616l-4.953 15.25h-16.819zm17.591-3h-16.577l3.121-9.232h16.453zm3.973-12.232h-16.414l3.025-8.948 16.343-.15zm-27.827-8.855-3.74 3.014v-3.014zm-31.577-6.923-.416-6.749c3.956.366 8.006.555 12.092.555s8.136-.191 12.093-.557l-.416 6.75a24.971 24.971 0 0 1 -4.858.486h-13.639a24.957 24.957 0 0 1 -4.858-.485zm11.677-19.014c4.385 0 8.7-.221 12.887-.634l-.608 9.862c-4.012.386-8.125.593-12.28.593s-8.269-.206-12.279-.592l-.608-9.864c4.188.414 8.5.635 12.888.635zm-13.074-3.66-.612-9.924a125.8 125.8 0 0 0 13.686.763 125.8 125.8 0 0 0 13.685-.763l-.611 9.924a128.435 128.435 0 0 1 -13.074.66 128.5 128.5 0 0 1 -13.077-.66zm27.807 21.848.385-6.244a112.606 112.606 0 0 0 11.331-1.9 25.356 25.356 0 0 1 -11.719 8.144zm14.167-11.819a105.418 105.418 0 0 1 -13.6 2.539l.609-9.887a105.046 105.046 0 0 0 16.1-3.226l-.249 1.865a24.956 24.956 0 0 1 -2.86 8.709zm3.541-13.826a100.1 100.1 0 0 1 -16.341 3.434l.612-9.933a113.445 113.445 0 0 0 17.081-3.608zm-21.241-65.56a23.49 23.49 0 0 1 23.464 23.464v17.039a7.022 7.022 0 0 0 -.815.227 94.532 94.532 0 0 1 -15.949 4.018 9.955 9.955 0 0 0 -9.67-9.717v-32.85a8.191 8.191 0 0 0 -.3-2.182zm-19.165 38.017h15.924a6.963 6.963 0 0 1 6.955 6.955v.209a111.351 111.351 0 0 1 -14.914 1.015 111.333 111.333 0 0 1 -14.917-1.016v-.208a6.963 6.963 0 0 1 6.952-6.955zm7.965-41.071a5.241 5.241 0 0 1 5.235 5.235v32.836h-10.47v-32.836a5.24 5.24 0 0 1 5.235-5.235zm-11.2 3.053h3.269a8.194 8.194 0 0 0 -.3 2.182v32.85a9.955 9.955 0 0 0 -9.671 9.717 94.545 94.545 0 0 1 -15.951-4.022 7.088 7.088 0 0 0 -.816-.228v-17.034a23.491 23.491 0 0 1 23.469-23.464zm-28.58 49.067a3.992 3.992 0 0 1 -.374-1.41 6.965 6.965 0 0 0 1.66.876 107.412 107.412 0 0 0 16.135 4.248 1.5 1.5 0 1 0 .543-2.95 104.461 104.461 0 0 1 -15.684-4.129 3.959 3.959 0 0 1 -1.619-1.07 3.981 3.981 0 0 1 4.272-1.071 106.373 106.373 0 0 0 34.847 5.636 106.354 106.354 0 0 0 34.844-5.636 4 4 0 1 1 2.654 7.547 114.458 114.458 0 0 1 -37.498 6.089 114.461 114.461 0 0 1 -37.5-6.088 3.976 3.976 0 0 1 -2.28-2.042zm23.063 10 .612 9.933a100.067 100.067 0 0 1 -16.344-3.433l-1.351-10.113a113.446 113.446 0 0 0 17.083 3.608zm-15.3 9.751a105.05 105.05 0 0 0 16.1 3.226l.609 9.887a105.332 105.332 0 0 1 -13.6-2.543 24.955 24.955 0 0 1 -2.855-8.706zm5.561 14.25a112.565 112.565 0 0 0 11.334 1.9l.385 6.245a25.353 25.353 0 0 1 -11.717-8.15zm19.633 12.456h13.637a27.949 27.949 0 0 0 6.343-.729v9.6l-7.827 6.308a8.549 8.549 0 0 1 -10.667 0l-7.827-6.308v-9.6a27.947 27.947 0 0 0 6.343.723zm-9.342 6.451-3.74-3.014h3.74zm-5.044 36.322h-16.817l-4.953-15.25h16.616zm-22.747-18.25-3-9.232h16.456l3.122 9.232zm-3.973-12.232-2.956-9.1 16.341.15 3.026 8.95zm-49.951 3.639a1.5 1.5 0 0 0 1.5-1.5v-5.957a3.444 3.444 0 1 1 6.888 0v26.655l-12.17.039a9.836 9.836 0 0 0 2.8-6.879v-5.485a9.833 9.833 0 0 0 -2.805-6.875zm-21.206 9.538a9.554 9.554 0 0 1 9.544-9.543h.813a6.883 6.883 0 0 1 6.875 6.875v5.488a6.883 6.883 0 0 1 -6.875 6.875l-10.356.061zm56.693 63.041a12.5 12.5 0 0 1 -22.97 3.965l-32.577-54.254 29.1-.094 6.316 10.518 11.844 19.719a1.5 1.5 0 1 0 2.572-1.544l-11.541-19.216 1.872-9.294 16.152 9.994 6.53 4.041zm60.069 26.448a45.6 45.6 0 0 1 -10.987-9.354 44.265 44.265 0 0 1 26.577.049 45.6 45.6 0 0 1 -10.943 9.3 4.456 4.456 0 0 1 -2.285.653h-.079a4.449 4.449 0 0 1 -2.282-.648zm-12.926-65.354a47.128 47.128 0 0 0 30.5.006c.28.379.54.772.807 1.16a48.481 48.481 0 0 1 -32.118-.008c.272-.391.531-.784.811-1.158zm1.985-2.5a45.6 45.6 0 0 1 10.942-9.3 4.443 4.443 0 0 1 4.646 0 45.6 45.6 0 0 1 10.947 9.3 44.281 44.281 0 0 1 -26.535 0zm-4.453 6.247a51.478 51.478 0 0 0 35.441.007 45.319 45.319 0 0 1 -.007 46.055 51.435 51.435 0 0 0 -35.469-.061 45.321 45.321 0 0 1 .035-46zm17.62 45.878a48.3 48.3 0 0 1 16.154 2.775c-.267.386-.526.778-.8 1.156a47.137 47.137 0 0 0 -30.539-.054c-.279-.38-.54-.772-.807-1.16a48.326 48.326 0 0 1 15.99-2.719zm6.867 16.384a48.156 48.156 0 0 0 -2.883-80.373 7.436 7.436 0 0 0 -7.771 0 48.156 48.156 0 0 0 -2.883 80.373h-37.837l-4.427-61.249a6.515 6.515 0 0 0 3.226-1.347 1.5 1.5 0 0 0 -1.871-2.346 3.574 3.574 0 0 1 -4.025.24l-.926-.573-14.117-8.734-13.871-8.583a3.5 3.5 0 0 1 3.684-5.953 1.5 1.5 0 1 0 1.578-2.551 6.451 6.451 0 0 0 -2.568-.911 25.251 25.251 0 0 1 23.892-20.402l13.487 41.526a1.5 1.5 0 0 0 1.427 1.037h20a1.5 1.5 0 0 0 1.421-1.98l-13.669-40.421 6.673.061 17.472 14.077a11.566 11.566 0 0 0 14.433 0l17.471-14.081 6.477-.06-13.662 40.425a1.5 1.5 0 0 0 1.421 1.98h20a1.5 1.5 0 0 0 1.427-1.037l13.49-41.534a25.259 25.259 0 0 1 24.078 20.407 6.447 6.447 0 0 0 -2.567.91 1.5 1.5 0 0 0 1.578 2.551 3.5 3.5 0 0 1 3.684 5.953l-28.911 17.892a3.572 3.572 0 0 1 -4.025-.239 1.5 1.5 0 0 0 -1.871 2.346 6.515 6.515 0 0 0 3.226 1.347l-4.43 61.246zm78.594-23.135a12.5 12.5 0 0 1 -22.97-3.966l-7.3-36.17 22.683-14.038 1.873 9.294-11.542 19.221a1.5 1.5 0 0 0 2.572 1.544l11.84-19.718 6.316-10.518 29.1.094z"/><path d="m139.49 72.74q2-.182 3.977-.429a1.5 1.5 0 0 0 -.371-2.977q-1.928.24-3.879.418a123.989 123.989 0 0 1 -26.317-.418 1.5 1.5 0 0 0 -.369 2.978 125.906 125.906 0 0 0 15.469.951c3.833 0 7.7-.176 11.49-.523z"/><circle cx="114.331" cy="49.007" r="3.241"/><circle cx="141.613" cy="49.007" r="3.241"/><path d="m124.028 192.6a1.495 1.495 0 0 0 0 2.99h2.472v4.448h-2.472a1.495 1.495 0 0 0 0 2.99h2.472v4.28a1.5 1.5 0 0 0 3 0v-4.28h2.493a1.495 1.495 0 0 0 0-2.99h-2.493v-4.448h2.493a1.495 1.495 0 0 0 0-2.99h-2.493v-4.45h2.493a1.495 1.495 0 1 0 0-2.99h-2.493v-4.448h2.493a1.495 1.495 0 1 0 0-2.99h-2.493v-4.28a1.5 1.5 0 0 0 -3 0v4.28h-2.472a1.495 1.495 0 1 0 0 2.99h2.472v4.448h-2.472a1.495 1.495 0 1 0 0 2.99h2.472v4.45z"/><path d="m27.323 240.58h-18a1.5 1.5 0 0 0 0 3h18a1.5 1.5 0 0 0 0-3z"/><path d="m246.68 240.58h-18a1.5 1.5 0 0 0 0 3h18a1.5 1.5 0 0 0 0-3z"/><path d="m218.479 240.58h-180.958a1.5 1.5 0 0 0 0 3h180.958a1.5 1.5 0 0 0 0-3z"/></g></svg>