<svg height="50" viewBox="0 0 256 256" width="50" xmlns="http://www.w3.org/2000/svg"><circle cx="99.928" cy="56.743" fill="#f87023" r="6.5"/><circle cx="157.267" cy="56.743" fill="#f8af23" r="6.5"/><path d="m89.244 199.802h78.707v28.003h-78.707z" fill="#9e9e9e"/><path d="m89.244 199.802h16v28.003h-16z" fill="#707070"/><path d="m164.534 98.988-21.057-2.171h-29.76l-21.057 2.171a29.574 29.574 0 0 0 -23.924 17.255l-9.742 21.592h30.25v61.965h78.707v-61.965h30.249l-9.742-21.592a29.574 29.574 0 0 0 -23.924-17.255z" fill="#63bce7"/><path d="m89.244 137.835h16v61.967h-16z" fill="#6377e7"/><path d="m108.66 98.988 21.057-2.171h-16l-21.057 2.171a29.574 29.574 0 0 0 -23.924 17.255l-9.742 21.592h16l9.742-21.592a29.574 29.574 0 0 1 23.924-17.255z" fill="#6377e7"/><path d="m114.866 79.653h27.463v22.584h-27.463z" fill="#f8af23"/><path d="m114.866 79.653h9.178v22.584h-9.178z" fill="#f87023"/><rect fill="#f8af23" height="69.477" rx="27.467" width="57.339" x="99.928" y="17.222"/><path d="m115.928 59.232v-14.543a27.576 27.576 0 0 1 20.672-26.609 27.275 27.275 0 0 0 -6.8-.858h-2.406a27.548 27.548 0 0 0 -27.466 27.467v14.543a27.548 27.548 0 0 0 27.467 27.468h2.405a27.27 27.27 0 0 0 6.8-.858 27.576 27.576 0 0 1 -20.672-26.61z" fill="#f87023"/><path d="m114.866 90.993 13.731 11.244-14.634 9.489-4.389-14.482z" fill="#f46275"/><path d="m142.329 90.993-13.732 11.244 14.635 9.489 4.389-14.482z" fill="#f46275"/><path d="m100.353 137.835h56.488v74.054h-56.488z" fill="#f46275"/><path d="m111.367 38.055s9.466 21.583 45.9 8.625v-1.991a27.548 27.548 0 0 0 -27.467-27.467h-2.406a27.548 27.548 0 0 0 -27.466 27.467v8.491h4.606z" fill="#9e9e9e"/><path d="m136.6 18.08a27.28 27.28 0 0 0 -6.8-.858h-2.406a27.548 27.548 0 0 0 -27.466 27.467v8.491h4.606l6.833-15.125a19.323 19.323 0 0 0 4.572 5.841 27.588 27.588 0 0 1 20.661-25.816z" fill="#707070"/><path d="m128.883 161.748a12.5 12.5 0 0 0 -14.043-10.738l-30.37 4.049 3.651-14.087a12.48 12.48 0 0 0 .387-3.136h-25.4l-7.5 28.933a12.5 12.5 0 0 0 13.753 15.526l48.783-6.5a12.5 12.5 0 0 0 10.739-14.047z" fill="#f8af23"/><path d="m74.352 178.192a12.5 12.5 0 0 1 -2.743-11.424l7.5-28.933h-16l-7.5 28.933a12.5 12.5 0 0 0 13.753 15.526l8.851-1.18a12.477 12.477 0 0 1 -3.861-2.922z" fill="#f87023"/><circle cx="118.417" cy="60.874" fill="#3f3679" r="2.875"/><circle cx="140.65" cy="60.874" fill="#3f3679" r="2.875"/><rect fill="#f8af23" height="10.167" rx="5.083" width="24.167" x="116.514" y="132.752"/><path d="m183.622 80.671 5.018 5.018-33.022 33.021-8.356 3.339 3.339-8.357z" fill="#9e9e9e"/><path d="m188.283 175.575a12.5 12.5 0 0 1 -11.93-8.783l-17.667-56.667a12.5 12.5 0 0 1 23.867-7.441l17.667 56.667a12.51 12.51 0 0 1 -11.937 16.224z" fill="#f8af23"/><g fill="#3f3679"><path d="m129.534 73.312a1.5 1.5 0 0 0 1.5-1.5v-7.333a1.5 1.5 0 0 0 -3 0v7.333a1.5 1.5 0 0 0 1.5 1.5z"/><path d="m121.521 53.437h-7.334a1.5 1.5 0 0 0 0 3h7.334a1.5 1.5 0 0 0 0-3z"/><path d="m135.675 56.437h7.333a1.5 1.5 0 0 0 0-3h-7.333a1.5 1.5 0 0 0 0 3z"/><path d="m134.953 76.769a1.5 1.5 0 0 0 -2.322-1.9 4 4 0 0 1 -6.194 0 1.5 1.5 0 1 0 -2.322 1.9 7 7 0 0 0 10.839 0z"/><path d="m27.323 237.278h-18a1.5 1.5 0 0 0 0 3h18a1.5 1.5 0 1 0 0-3z"/><path d="m246.68 237.278h-18a1.5 1.5 0 0 0 0 3h18a1.5 1.5 0 0 0 0-3z"/><path d="m218.479 237.278h-180.958a1.5 1.5 0 0 0 0 3h180.958a1.5 1.5 0 0 0 0-3z"/><path d="m9.32 229.305h237.36a1.5 1.5 0 0 0 0-3h-77.229v-76.614l5.471 17.547a14 14 0 1 0 26.73-8.334l-6.1-19.569h2.648a1.5 1.5 0 0 0 1.367-2.117l-9.741-21.592a31.125 31.125 0 0 0 -3.5-5.91c0-.006-.011-.011-.016-.017l-2.326-7.461a13.9 13.9 0 0 0 -3.766-6.008l9.48-9.481a1.5 1.5 0 0 0 0-2.121l-5.018-5.018a1.5 1.5 0 0 0 -2.121 0l-12.836 12.838a13.791 13.791 0 0 0 -9.492 4.588l-11.856-1.222-4.546-5.37v-5.88a29.05 29.05 0 0 0 14.417-19.887 7.992 7.992 0 0 0 .52-15.784v-4.2a29 29 0 0 0 -28.966-28.971h-2.405a29 29 0 0 0 -28.967 28.967v4.2a7.994 7.994 0 0 0 .52 15.787 29.049 29.049 0 0 0 14.418 19.888v5.88l-4.547 5.37-16.313 1.686a31.173 31.173 0 0 0 -25.137 18.131l-9.742 21.592a1.5 1.5 0 0 0 1.367 2.117h2.175l-7.013 27.057a14 14 0 0 0 15.4 17.389l18.185-2.425v44.949h-78.421a1.5 1.5 0 0 0 0 3zm186.558-92.97h-1.262l-2.823-9.055zm-12.256-53.543 2.9 2.9-8.722 8.718a14.07 14.07 0 0 0 -4.138-1.656zm-16.276 13.108a11 11 0 0 1 13.776 7.227l17.667 56.673a11 11 0 1 1 -21 6.549l-17.667-56.667a11 11 0 0 1 7.224-13.782zm-10.382 13.55c.084.375.175.75.291 1.122l1.041 3.34-3.521 3.52-4.823 1.928 1.927-4.824zm-14.826-16.361 3.812 4.5-3.574 11.792-11.238-7.281zm20.129-36.346a4.991 4.991 0 0 1 -3.6 4.775c.059-.755.1-1.516.1-2.286v-7.241a4.984 4.984 0 0 1 3.5 4.752zm-32.467-38.021a26 26 0 0 1 25.967 25.967v.911c-32.942 11.291-42.224-6.457-42.98-8.055l-2.967-11.53a1.5 1.5 0 0 0 -.119-.308 25.865 25.865 0 0 1 17.693-6.985zm-22.5 9.541 2.483 9.655-6.218 13.762h-2.138v-6.991a25.845 25.845 0 0 1 5.873-16.426zm-12.372 28.48a5 5 0 0 1 3.5-4.771v7.261c0 .77.039 1.531.1 2.286a4.991 4.991 0 0 1 -3.6-4.776zm6.5 2.49v-4.553h3.106a1.5 1.5 0 0 0 1.366-.88l5.661-12.531a25.038 25.038 0 0 0 8.313 7.244c11.239 6.169 25.412 3.716 35.892.265v10.454a26 26 0 0 1 -25.966 25.968h-2.405a26 26 0 0 1 -25.967-25.968zm25.967 28.967h2.405a28.8 28.8 0 0 0 11.029-2.187v4.271l-12.229 10.016-12.234-10.017v-4.27a28.8 28.8 0 0 0 11.029 2.187zm-12.337 4.89 11 9.007-11.237 7.287-3.576-11.794zm-44.958 23.77a28.164 28.164 0 0 1 22.711-16.38l15.689-1.617 4.031 13.3a1.5 1.5 0 0 0 2.252.824l13.818-8.959 13.818 8.959a1.5 1.5 0 0 0 2.252-.824l4.03-13.3 9.556.985c-.01.018-.021.034-.031.052a13.946 13.946 0 0 0 -1.57 5.652c-.031.026-.069.036-.1.065l-7.015 7.015a1.5 1.5 0 0 0 -.332.5l-3.339 8.356a1.5 1.5 0 0 0 1.949 1.95l8.356-3.339a1.5 1.5 0 0 0 .5-.333l2.626-2.625 7.151 22.937v.042 58.18h-8.109v-60.465a1.5 1.5 0 0 0 -1.5-1.5h-14.843a6.59 6.59 0 0 0 -6.4-5.083h-14a6.59 6.59 0 0 0 -6.405 5.083h-14.841a1.5 1.5 0 0 0 -1.5 1.5v13.793l-2.159.288-5.949.793v-14.493l6.336-14.044a1.5 1.5 0 1 0 -2.734-1.233l-6.044 13.4h-26.988zm31.75 62.615 16.489-2.2a14 14 0 1 0 -3.7-27.754l-12.788 1.705v-11.891h13.339a6.59 6.59 0 0 0 6.4 5.083h14a6.59 6.59 0 0 0 6.4-5.083h13.34v71.054h-53.476zm16.16-41.64a3.587 3.587 0 0 1 3.584-3.583h14a3.583 3.583 0 0 1 0 7.167h-14a3.587 3.587 0 0 1 -3.58-3.584zm-30.27 15.274-1.263.168 1.263-4.872zm-18.581 27.7a11 11 0 0 1 -12.1-13.663l7.208-27.809h22.645a10.41 10.41 0 0 1 -.243 1.26l-3.4 13.111-10.43 1.392a1.5 1.5 0 0 0 .2 2.987 1.543 1.543 0 0 0 .2-.013l15.624-2.083 26.18-3.49a11 11 0 0 1 2.907 21.807zm29.69-.932v18.423h-8.105v-17.344zm-8.105 21.423h8.109v10.586a1.5 1.5 0 0 0 1.5 1.5h56.488a1.5 1.5 0 0 0 1.5-1.5v-10.586h8.109v25h-75.706z"/></g></svg>