<svg height="54pt" viewBox="0 -7 476.43246 476" width="64pt" xmlns="http://www.w3.org/2000/svg"><path d="m421.71875 190.066406-1.640625-67.171875c-.761719-14.984375 10.394531-27.925781 25.332031-29.378906l23.019532 145.261719c.28125 18.234375-5.320313 36.074218-15.96875 50.878906l-56.351563 68.191406c-5.183594 6.273438-7.742187 14.3125-7.140625 22.429688l3.71875 21.199218-80.667969-38.421874.300781-.636719c-6.222656-30.601563 5.179688-62.109375 29.539063-81.640625l4.46875-3.589844c7.011719-5.613281 12.65625-12.742188 16.511719-20.851562l21.539062-45.21875c6.757813-14.191407 21.699219-22.617188 37.339844-21.050782zm0 0" fill="#f7caa5"/><path d="m392.6875 401.476562 6.621094 3.148438-23.609375 49.589844-108.820313-51.828125 23.621094-49.582031 21.519531 10.25zm0 0" fill="#00acea"/><path d="m347.890625 72.65625v122.078125c-.003906 11.910156-9.65625 21.558594-21.5625 21.5625h-176.21875c-11.90625-.003906-21.558594-9.652344-21.558594-21.5625v-122.078125zm0 0" fill="#00efd1"/><path d="m302.179688 27.464844h24.148437c11.910156 0 21.5625 9.652344 21.5625 21.5625v23.628906h-219.339844v-23.628906c-.003906-11.910156 9.648438-21.5625 21.558594-21.5625zm0 0" fill="#00acea"/><path d="m83.75 401.476562 80.667969-38.421874 21.519531-10.25 23.621094 49.582031-108.820313 51.828125-23.609375-49.589844zm0 0" fill="#00acea"/><path d="m54.71875 190.066406c15.640625-1.566406 30.582031 6.859375 37.339844 21.050782l21.539062 45.21875c3.859375 8.109374 9.503906 15.238281 16.511719 20.851562l4.46875 3.589844c24.363281 19.53125 35.761719 51.039062 29.542969 81.640625l.296875.636719-80.667969 38.421874 3.71875-21.199218c.601562-8.117188-1.957031-16.15625-7.140625-22.429688l-56.347656-68.191406c-10.652344-14.804688-16.253907-32.644531-15.972657-50.878906l23.019532-145.261719c14.386718 1.402344 25.363281 13.488281 25.371094 27.941406 0 .46875-.019532.960938-.039063 1.4375zm0 0" fill="#f7caa5"/><g fill="#083863"><path d="m341.320312 270.949219-4.46875 3.585937c-22.765624 18.164063-35.453124 46.140625-34.121093 75.234375l-8.792969-4.1875c-3.988281-1.898437-8.761719-.207031-10.664062 3.78125l-23.617188 49.582031c-1.902344 3.988282-.207031 8.765626 3.78125 10.664063l108.820312 51.828125c3.988282 1.902344 8.765626.207031 10.664063-3.78125l23.609375-49.589844c1.898438-3.992187.203125-8.765625-3.785156-10.664062l-2.890625-1.375-2.9375-16.710938c-.355469-5.941406 1.554687-11.792968 5.355469-16.375l56.347656-68.1875c.113281-.140625.222656-.28125.328125-.425781 11.617187-16.21875 17.738281-35.726563 17.476562-55.675781-.007812-.378906-.042969-.753906-.101562-1.128906l-23.019531-145.257813c-.660157-4.183594-4.464844-7.125-8.679688-6.710937-19.15625 1.84375-33.484375 18.414062-32.546875 37.636718l1.4375 58.917969c-15.75 1.59375-29.535156 11.28125-36.363281 25.566406l-21.53125 45.222657c-3.351563 7.015624-8.238282 13.183593-14.300782 18.050781zm30.59375 172.597656-94.375-44.949219 16.738282-35.132812 94.371094 44.953125zm-1.855468-183.773437 21.542968-45.222657c5.316407-11.140625 17.046876-17.75 29.328126-16.527343.652343.0625 1.296874.148437 1.941406.257812l-31.488282 66.121094c-1.257812 2.582031-1.035156 5.644531.589844 8.019531 1.621094 2.375 4.394532 3.695313 7.257813 3.457031 2.867187-.234375 5.386719-1.992187 6.597656-4.597656l35.402344-74.339844c1.898437-3.992187.203125-8.765625-3.785157-10.664062-2.535156-1.203125-5.175781-2.171875-7.890624-2.890625l-1.480469-60.691407c0-.070312 0-.140624-.007813-.210937-.40625-7.871094 3.835938-15.253906 10.84375-18.867187l21.527344 135.835937c.097656 16.234375-4.914062 32.085937-14.320312 45.316406l-56.175782 67.980469c-6.515625 7.859375-9.722656 17.9375-8.953125 28.117188.023438.265624.054688.53125.101563.792968l1.039062 5.925782-62.507812-29.769532c-4.394532-26.792968 6.027344-53.867187 27.25-70.800781l4.460937-3.582031c7.941407-6.378906 14.34375-14.464844 18.730469-23.65625zm0 0"/><path d="m17.8125 294.753906 56.351562 68.1875c3.796876 4.582032 5.710938 10.433594 5.355469 16.375l-2.933593 16.707032-2.890626 1.378906c-3.988281 1.898437-5.683593 6.671875-3.785156 10.664062l23.609375 49.589844c1.898438 3.988281 6.675781 5.683594 10.664063 3.78125l108.820312-51.828125c3.988282-1.898437 5.683594-6.675781 3.78125-10.664063l-23.621094-49.582031c-1.898437-3.988281-6.671874-5.679687-10.660156-3.78125l-8.792968 4.1875c1.332031-29.09375-11.355469-57.066406-34.117188-75.230469l-4.480469-3.601562c-6.0625-4.863281-10.945312-11.027344-14.292969-18.042969l-21.542968-45.214843c-6.824219-14.289063-20.609375-23.984376-36.367188-25.574219l1.441406-58.941407c.023438-.570312.042969-1.152343.042969-1.707031.054688-18.59375-14.078125-34.164062-32.59375-35.902343-4.210937-.410157-8.015625 2.53125-8.675781 6.710937l-23.015625 145.257813c-.0625.375-.09375.75-.1015625 1.128906-.2656245 19.949218 5.8593755 39.457031 17.4765625 55.675781.105469.144531.214844.285156.328125.425781zm181.082031 103.851563-94.375 44.949219-16.726562-35.136719 80.066406-38.132813 14.300781-6.8125zm-161.363281-295c6.691406 3.433593 10.890625 10.328125 10.867188 17.851562 0 .359375-.015626.730469-.035157 1.097657v.148437l-1.480469 60.6875c-2.710937.71875-5.355468 1.6875-7.886718 2.894531-3.992188 1.898438-5.683594 6.671875-3.785156 10.660156l35.398437 74.339844c1.214844 2.609375 3.730469 4.363282 6.597656 4.601563 2.867188.234375 5.636719-1.085938 7.261719-3.457031 1.621094-2.375 1.847656-5.4375.585938-8.023438l-31.488282-66.117188c.648438-.113281 1.300782-.199218 1.953125-.261718 12.28125-1.21875 24.003907 5.394531 29.316407 16.527344l21.539062 45.21875c4.386719 9.191406 10.785156 17.273437 18.726562 23.652343l4.472657 3.59375c21.21875 16.933594 31.640625 44.007813 27.246093 70.796875l-62.511718 29.765625 1.039062-5.921875c.046875-.261718.082032-.527344.101563-.792968.773437-10.179688-2.4375-20.257813-8.953125-28.117188l-56.175782-67.980469c-9.410156-13.230469-14.417968-29.082031-14.320312-45.316406zm0 0"/><path d="m150.109375 224.214844h176.21875c16.300781 0 29.890625-13.179688 29.890625-29.480469v-145.707031c-.152344-16.433594-13.457031-29.703125-29.890625-29.8125h-16.109375v-11c0-4.417969-3.582031-8-8-8s-8 3.582031-8 8v11h-110v-11c0-4.417969-3.582031-8-8-8s-8 3.582031-8 8v11h-18.109375c-16.429687.109375-29.738281 13.378906-29.890625 29.8125v145.707031c0 16.300781 13.589844 29.480469 29.890625 29.480469zm-13.890625-175.1875c.144531-7.597656 6.292969-13.710938 13.890625-13.8125h18.109375v11.5c0 4.417968 3.582031 8 8 8s8-3.582032 8-8v-11.5h110v11.5c0 4.417968 3.582031 8 8 8s8-3.582032 8-8v-11.5h16.109375c7.601563.101562 13.746094 6.214844 13.890625 13.8125v15.1875h-204zm204 31.1875v114.519531c0 7.480469-6.414062 13.480469-13.890625 13.480469h-176.21875c-7.476563 0-13.890625-6-13.890625-13.480469v-114.519531zm0 0"/></g></svg>