<svg id="Capa_1" enable-background="new 0 0 512.5 512.5" height="64" viewBox="0 0 512.5 512.5" width="64" xmlns="http://www.w3.org/2000/svg" xmlns:xlink="http://www.w3.org/1999/xlink"><linearGradient id="SVGID_1_" gradientUnits="userSpaceOnUse" x1="258" x2="258" y1="146.5" y2="366.5"><stop offset=".00000083866" stop-color="#96d1f3"/><stop offset="1" stop-color="#ccfff4"/></linearGradient><linearGradient id="SVGID_2_" gradientUnits="userSpaceOnUse" x1="256" x2="256" y1="7.5" y2="505"><stop offset=".00000036422" stop-color="#a8abff"/><stop offset="1" stop-color="#fac8ff"/></linearGradient><linearGradient id="SVGID_3_" gradientUnits="userSpaceOnUse" x1="256.25" x2="256.25" y1="0" y2="512.5"><stop offset=".00000011981" stop-color="#174fa3"/><stop offset="1" stop-color="#b044af"/></linearGradient><g><g><circle cx="258" cy="256.5" fill="url(#SVGID_1_)" r="110"/><path d="m127.5 103c0 18.502-14.998 33.5-33.5 33.5s-33.5-14.998-33.5-33.5 14.998-33.5 33.5-33.5 33.5 14.998 33.5 33.5zm128.5-95.5c-18.502 0-33.5 14.998-33.5 33.5s14.998 33.5 33.5 33.5 33.5-14.998 33.5-33.5-14.998-33.5-33.5-33.5zm0 430.5c-18.502 0-33.5 14.998-33.5 33.5s14.998 33.5 33.5 33.5 33.5-14.998 33.5-33.5-14.998-33.5-33.5-33.5zm166-368.5c-18.502 0-33.5 14.998-33.5 33.5s14.998 33.5 33.5 33.5 33.5-14.998 33.5-33.5-14.998-33.5-33.5-33.5zm-328 306c-18.502 0-33.5 14.998-33.5 33.5s14.998 33.5 33.5 33.5 33.5-14.998 33.5-33.5-14.998-33.5-33.5-33.5zm328 0c-18.502 0-33.5 14.998-33.5 33.5s14.998 33.5 33.5 33.5 33.5-14.998 33.5-33.5-14.998-33.5-33.5-33.5zm82.75-119.25c0-18.502-14.998-33.5-33.5-33.5s-33.5 14.998-33.5 33.5 14.998 33.5 33.5 33.5 33.5-14.998 33.5-33.5zm-430.5 0c0-18.502-14.998-33.5-33.5-33.5s-33.5 14.998-33.5 33.5 14.998 33.5 33.5 33.5 33.5-14.998 33.5-33.5z" fill="url(#SVGID_2_)"/></g><path d="m258.75 139c-64.79 0-117.5 52.71-117.5 117.5s52.71 117.5 117.5 117.5 117.5-52.71 117.5-117.5-52.71-117.5-117.5-117.5zm-41.512 23.792c-2.812 3.701-5.472 7.805-7.954 12.305-2.151 3.9-4.122 8.034-5.921 12.352-3.992-2.574-7.825-5.436-11.469-8.581 7.569-6.527 16.099-11.965 25.344-16.076zm-35.984 26.691c5.319 4.682 10.991 8.841 16.959 12.442-4.332 14.456-6.885 30.441-7.479 47.075h-34.208c1.647-22.663 10.691-43.307 24.728-59.517zm-24.728 74.517h34.208c.641 17.949 3.571 35.137 8.545 50.469-5.604 3.296-10.956 7.073-16.001 11.31-15.187-16.532-25.028-38.047-26.752-61.779zm37.768 72.134c3.337-2.704 6.82-5.183 10.431-7.428 1.422 3.181 2.938 6.258 4.559 9.198 2.482 4.5 5.142 8.604 7.954 12.305-8.282-3.684-15.987-8.434-22.944-14.075zm56.956 21.791c-13.122-3.754-24.864-17.157-33.156-36.219 10.442-4.512 21.625-7.267 33.156-8.101zm0-59.349c-13.321.84-26.254 3.908-38.334 9.025-4.01-13.08-6.561-27.914-7.182-43.602h45.517v34.577zm0-49.576h-45.517c.566-14.276 2.73-27.844 6.136-40.028 12.359 5.379 25.641 8.593 39.38 9.453v30.575zm0-45.603c-12.081-.868-23.744-3.83-34.571-8.706 8.341-20.86 20.683-35.643 34.571-39.616zm109.724 45.603h-34.208c-.594-16.634-3.147-32.619-7.479-47.075 5.968-3.601 11.639-7.76 16.959-12.442 14.037 16.21 23.081 36.854 24.728 59.517zm-35.369-70.133c-3.644 3.146-7.477 6.007-11.469 8.581-1.799-4.318-3.77-8.452-5.921-12.352-2.482-4.5-5.142-8.604-7.954-12.305 9.246 4.112 17.776 9.55 25.344 16.076zm-59.355-23.792c13.888 3.973 26.23 18.756 34.571 39.616-10.827 4.877-22.49 7.839-34.571 8.706zm0 63.349c13.739-.859 27.021-4.074 39.38-9.453 3.406 12.184 5.571 25.752 6.136 40.028h-45.516zm0 45.576h45.517c-.621 15.688-3.172 30.522-7.182 43.602-12.081-5.118-25.013-8.185-38.334-9.025v-34.577zm0 93.925v-44.321c11.531.834 22.714 3.589 33.156 8.101-8.292 19.064-20.034 32.466-33.156 36.22zm34.012-7.717c2.812-3.701 5.472-7.805 7.954-12.305 1.621-2.94 3.136-6.016 4.559-9.198 3.611 2.245 7.095 4.724 10.431 7.428-6.957 5.642-14.662 10.392-22.944 14.075zm33.96-24.429c-5.045-4.237-10.397-8.014-16.001-11.31 4.974-15.332 7.904-32.52 8.545-50.469h34.208c-1.724 23.732-11.565 45.247-26.752 61.779zm-239.972-181.779c8.672 0 16.718-2.714 23.35-7.326l32.524 31.014 10.352-10.855-32.315-30.815c4.471-6.567 7.09-14.491 7.09-23.017 0-22.607-18.393-41-41-41s-41 18.393-41 41 18.392 40.999 40.999 40.999zm0-67c14.336 0 26 11.663 26 26s-11.664 26-26 26-26-11.663-26-26 11.664-26 26-26zm154.5 4.3v35.23h15v-35.23c19.036-3.535 33.5-20.255 33.5-40.3 0-22.607-18.393-41-41-41s-41 18.393-41 41c0 20.045 14.464 36.765 33.5 40.3zm7.5-66.3c14.336 0 26 11.663 26 26s-11.664 26-26 26-26-11.663-26-26 11.664-26 26-26zm7.5 416.2v-34.73h-15v34.73c-19.036 3.535-33.5 20.255-33.5 40.3 0 22.607 18.393 41 41 41s41-18.393 41-41c0-20.045-14.464-36.765-33.5-40.3zm-7.5 66.3c-14.336 0-26-11.663-26-26s11.664-26 26-26 26 11.663 26 26-11.664 26-26 26zm166-129.5c-10.979 0-20.956 4.346-28.323 11.398l-30.931-29.496-10.352 10.855 32.447 30.942c-2.459 5.26-3.841 11.121-3.841 17.301 0 22.607 18.393 41 41 41s41-18.393 41-41-18.393-41-41-41zm0 67c-14.336 0-26-11.663-26-26s11.664-26 26-26 26 11.663 26 26-11.664 26-26 26zm49.25-219.75c-19.515 0-35.878 13.709-39.993 32h-32.767v15h32.203c2.913 19.773 19.988 35 40.557 35 22.607 0 41-18.393 41-41s-18.393-41-41-41zm0 67c-14.336 0-26-11.663-26-26s11.664-26 26-26 26 11.663 26 26-11.664 26-26 26zm-389.943-20h37.203v-15h-37.767c-4.115-18.291-20.478-32-39.993-32-22.607 0-41 18.393-41 41s18.393 41 41 41c20.569 0 37.644-15.227 40.557-35zm-40.557 20c-14.336 0-26-11.663-26-26s11.664-26 26-26 26 11.663 26 26-11.664 26-26 26zm111.104 65.182-31.589 30.116c-7.119-5.955-16.279-9.548-26.265-9.548-22.607 0-41 18.393-41 41s18.393 41 41 41 41-18.393 41-41c0-7.204-1.874-13.975-5.15-19.865l32.355-30.846zm-57.854 87.568c-14.336 0-26-11.663-26-26s11.664-26 26-26 26 11.663 26 26-11.664 26-26 26zm270.766-269.832 31.642-30.171c7.02 5.626 15.917 9.003 25.592 9.003 22.607 0 41-18.393 41-41s-18.393-41-41-41-41 18.393-41 41c0 7.519 2.044 14.566 5.592 20.631l-32.177 30.681zm57.234-88.168c14.336 0 26 11.663 26 26s-11.664 26-26 26-26-11.663-26-26 11.664-26 26-26z" fill="url(#SVGID_3_)"/></g></svg>