<svg id="Layer_1" height="64" viewBox="0 0 512 512" width="64" xmlns="http://www.w3.org/2000/svg" data-name="Layer 1"><path d="m435.56 88h-359.12a20.551 20.551 0 0 0 -20.44 20.26v227.05a17.768 17.768 0 0 0 14.65 17.34 18.494 18.494 0 0 0 3.27.35h364.16a18.907 18.907 0 0 0 4.08-.51 17.793 17.793 0 0 0 13.84-17.18v-227.05a20.551 20.551 0 0 0 -20.44-20.26z" fill="#556d8d"/><rect fill="#eef5fe" height="218.43" rx="11.7" width="346.88" x="82.56" y="111.31"/><path d="m113 111h-18.3a11.7 11.7 0 0 0 -11.7 11.7v194.6a11.7 11.7 0 0 0 11.7 11.7h18.3z" fill="#d1dbe5"/><path d="m188.62 462.54h306.38v8.67a17.555 17.555 0 0 1 -17.56 17.55h-442.88a17.555 17.555 0 0 1 -17.56-17.55v-8.67z" fill="#556d8d"/><path d="m450.6 361.39 44.4 101.15h-171.62l-9.57-28.92h-115.62l-9.57 28.92h-171.62l45.33-101.26a17.621 17.621 0 0 1 8.5-8.69v-.01a16.521 16.521 0 0 0 3.09.28h364.16a17.269 17.269 0 0 0 3.9-.44l.03.15a17.54 17.54 0 0 1 8.59 8.82z" fill="#496275"/><path d="m313.81 433.62 9.57 28.92h-134.76l9.57-28.92z" fill="#d4e1f4"/><path d="m316.04 111.31a66.469 66.469 0 1 0 -105 77.45 46.071 46.071 0 0 1 11.1 15.7 47.328 47.328 0 0 1 3.86 18.87v6.67h60v-6.72a47.62 47.62 0 0 1 15.35-34.84 66.329 66.329 0 0 0 14.69-77.13z" fill="#f3e08c"/><path d="m287.9 245h-63.8a7.891 7.891 0 0 0 -5.52 2.39 8.128 8.128 0 0 0 -2.28 5.66 7.927 7.927 0 0 0 7.8 7.95h63.8a7.882 7.882 0 0 0 5.52-2.38 8.14 8.14 0 0 0 2.28-5.665 7.931 7.931 0 0 0 -7.8-7.955z" fill="#496275"/><path d="m284.7 260.82a7.81 7.81 0 0 1 0 15.62h-57.4a7.81 7.81 0 0 1 0-15.62z" fill="#556d8d"/><path d="m425.59 375.01 13.49 36.32h-366.16l13.49-36.32z" fill="#eef5fe"/><g fill="#eadf53"><path d="m256 54.541a6 6 0 0 1 -6-6v-25.3a6 6 0 0 1 12 0v25.3a6 6 0 0 1 -6 6z"/><path d="m376.615 149.782h-25.315a6 6 0 0 1 0-12h25.313a6 6 0 0 1 0 12z"/><path d="m160.7 149.782h-25.315a6 6 0 0 1 0-12h25.315a6 6 0 0 1 0 12z"/><path d="m325.242 80.584a6 6 0 0 1 -4.242-10.244l19.753-19.74a6 6 0 1 1 8.483 8.488l-19.753 19.74a5.978 5.978 0 0 1 -4.241 1.756z"/><path d="m186.758 80.584a5.978 5.978 0 0 1 -4.241-1.756l-19.753-19.74a6 6 0 1 1 8.483-8.488l19.753 19.74a6 6 0 0 1 -4.241 10.244z"/></g><path d="m250 161h12v69h-12z" fill="#b2a366"/><path d="m208 149.415a6 6 0 0 1 -6-6 56.793 56.793 0 0 1 16.95-40.635 57.656 57.656 0 0 1 11.381-8.764 6 6 0 0 1 6.071 10.351 45.609 45.609 0 0 0 -9.008 6.94 44.875 44.875 0 0 0 -13.394 32.108 6 6 0 0 1 -6 6z" fill="#f4f8fc"/><path d="m248.7 99.289a6 6 0 0 1 -1.212-11.876 57.616 57.616 0 0 1 6.931-1 6 6 0 1 1 .99 11.959 45.667 45.667 0 0 0 -5.484.792 6.045 6.045 0 0 1 -1.225.125z" fill="#f4f8fc"/><path d="m108.352 235.728a6 6 0 0 1 -6-6v-66.616a6 6 0 0 1 12 0v66.616a6 6 0 0 1 -6 6z" fill="#b8c1c9"/><path d="m108.352 151.353a6 6 0 0 1 -6-6v-3.2a6 6 0 0 1 12 0v3.2a6 6 0 0 1 -6 6z" fill="#b8c1c9"/><path d="m265.843 174.905c-5.735 0-8.547-4.182-10.058-6.429l-.1-.147-.1.146c-1.51 2.247-4.321 6.43-10.056 6.43s-8.547-4.183-10.057-6.43c-.239-.356-.565-.841-.817-1.166a6 6 0 0 1 .719-11.958c5.735 0 8.547 4.183 10.057 6.43l.1.144c.033-.05.066-.1.1-.144 1.511-2.247 4.322-6.43 10.057-6.43s8.547 4.182 10.058 6.429c.032.048.066.1.1.149l.1-.149c1.511-2.247 4.323-6.429 10.058-6.429a6 6 0 0 1 .718 11.958c-.252.325-.578.811-.818 1.167-1.513 2.247-4.325 6.429-10.061 6.429z" fill="#d1bf74"/><path d="m291.1 230h-70.2a7.594 7.594 0 0 0 -5.52 2.085 7.307 7.307 0 0 0 -2.28 5.317 7.627 7.627 0 0 0 7.8 7.6h70.15a7.769 7.769 0 0 0 5.545-2.18 7.217 7.217 0 0 0 2.292-5.265 7.575 7.575 0 0 0 -7.787-7.557z" fill="#556d8d"/></svg>