<svg height="50" viewBox="0 0 512 512" width="50" xmlns="http://www.w3.org/2000/svg"><g id="Fill_out_line" data-name="Fill out line"><path d="m352 232h-.0001a129.7687 129.7687 0 0 0 -109.83665 121.06146l-2.16325 38.93854-96 16 8 70.86487 176-22.86487z" fill="#529ddf"/><path d="m481 318-17 170h-136l-20.28-57.93994-5.56006-15.90015-15.17994-43.35986a79.99922 79.99922 0 0 1 14.05-77.64014l50.97-61.15991 64-8 5.27 1.76a87.99485 87.99485 0 0 1 59.73 92.24z" fill="#d4e4f0"/><path d="m481 318-17 170h-88l-5.89014-39.24a334.32205 334.32205 0 0 1 -3.62986-43.18993c-.10986-5.72-.08008-11.42993.12012-17.13013a334.1471 334.1471 0 0 1 49.39988-164.43994l5.27 1.76a87.99485 87.99485 0 0 1 59.73 92.24z" fill="#529ddf"/><path d="m464 488 7.748-77.48-94.415 20.48-10.917 57z" fill="#317ece"/><path d="m488 311.42993v112.57007l-112 32h-80a34.60467 34.60467 0 0 1 22.47-32.42993l34.79-13.05 70.74-26.52007v-72l-8-88 11.83008 3.93994a88.01093 88.01093 0 0 1 60.16992 83.48999z" fill="#529ddf"/><path d="m376 456h-80a34.60467 34.60467 0 0 1 22.47-32.42993l34.79-13.05z" fill="#fdc5ca"/><circle cx="432" cy="168" fill="#9f764a" r="32"/><path d="m416 224-64 8 3.71-14.83 4.29-17.17 8-8 16-24 24-24z" fill="#fdc5ca"/><path d="m408.26 160.83984-16.26 10.16016-8 5-24 24-40 8-24-56-16-8 16-48a72.00565 72.00565 0 0 1 72-72h1.55a72.00158 72.00158 0 0 1 71.28 61.82007l.54 3.78a71.9979 71.9979 0 0 1 -33.11 71.23977z" fill="#fdc5ca"/><path d="m360 128 11.02944-11.02944a16.97054 16.97054 0 0 1 12-4.97056 16.97054 16.97054 0 0 1 16.97056 16.97055v1.89118a16.97059 16.97059 0 0 1 -2.8502 9.41357l-10.64829 15.97243a8.42638 8.42638 0 0 1 -7.01118 3.75227 8.42639 8.42639 0 0 1 -5.95835-2.468l-5.53198-5.532z" fill="#fc979e"/><path d="m408.26 160.83984-16.26 10.16016v-43l-20.17993-11.77-72.39014-42.23a72.05344 72.05344 0 0 1 68.57007-50h1.55a72.00158 72.00158 0 0 1 71.28 61.82007l.54 3.78a71.9979 71.9979 0 0 1 -33.11 71.23977z" fill="#ba8b5d"/><path d="m144 408-5.50489.91748a76.55646 76.55646 0 0 0 -58.49511 47.08252h72z" fill="#fdc5ca"/><path d="m400 128.97v1.88989a16.98509 16.98509 0 0 1 -2.8501 9.42017l-5.1499 7.71994v-20l-20.17993-11.77a16.9693 16.9693 0 0 1 28.17993 12.74z" fill="#9f764a"/><path d="m352 128 11.02944-11.02944a16.97054 16.97054 0 0 1 12-4.97056 16.97054 16.97054 0 0 1 16.97056 16.97055v1.89118a16.97059 16.97059 0 0 1 -2.8502 9.41357l-10.64829 15.97243a8.42638 8.42638 0 0 1 -7.01118 3.75227 8.42639 8.42639 0 0 1 -5.95835-2.468l-5.53198-5.532z" fill="#fdc5ca"/><path d="m361.896 122.96-9.896-98.96h56l-9.344 93.441z" fill="#529ddf"/><circle cx="380" cy="124" fill="#68737f" r="28"/><rect fill="#4f5761" height="176" rx="16" width="232" x="24" y="216"/><path d="m24 440h128v48h-128z" fill="#68737f"/><path d="m152 440 64 16v32h-64z" fill="#4f5761"/><path d="m304 456h88v32h-88z" fill="#c1d7e6"/><path d="m216 456h88v32h-88z" fill="#d4e4f0"/><rect fill="#68737f" height="176" rx="16" width="200" x="24" y="216"/><path d="m72 360h48v80h-48z" fill="#4f5761"/><path d="m430.35791 220.35254-6.91284-2.3042-1.12207-11.22412a40.00347 40.00347 0 0 0 21.855-76.91992 80.35855 80.35855 0 0 0 5.11157-41.43653l-.54-3.77832a79.673 79.673 0 0 0 -33.35425-54.2417l.56519-5.65185a8 8 0 0 0 -7.96051-8.7959h-56a8.00009 8.00009 0 0 0 -5.93164 2.63184c-.16113.17822-.30884.36572-.45215.5559a79.94228 79.94228 0 0 0 -57.60547 75.48126l-15.6001 46.80078a7.99961 7.99961 0 0 0 4.01172 9.68554l13.37842 6.68946 5.45032 12.717-20.0509 15.03784a8 8 0 0 0 -1.85645 10.83789l16 24 13.3125-8.875-11.80176-17.70312 10.8833-8.16211 10.90918 25.4541a7.99981 7.99981 0 0 0 8.92188 4.69336l27.604-5.52051-3.67431 14.69629a137.59941 137.59941 0 0 0 -62.66309 29.9834l10.32812 12.2207a121.508 121.508 0 0 1 36.87085-21.36231l-35.14819 42.17769a88.43071 88.43071 0 0 0 -15.45557 85.40625l22.73316 64.95312a72.28362 72.28362 0 0 0 -4.12134 9.60063h-58.04248v16h56v16h-56v16h224a8.00035 8.00035 0 0 0 7.96045-7.2041l5.34192-53.41919 12.89538-3.68433a7.99983 7.99983 0 0 0 5.80225-7.69238v-112.57324a95.88 95.88 0 0 0 -65.64209-91.07422zm25.64209-52.35254a23.98977 23.98977 0 0 1 -35.45032 21.08545l-2.52453-25.25171a80.27859 80.27859 0 0 0 18.44812-19.40774 24.09086 24.09086 0 0 1 19.52673 23.574zm-23.08936-81.04785.54 3.77832a64.02554 64.02554 0 0 1 -28.24364 62.56445c-.38574.25293-.78027.50781-1.18652.76074l-4.02048 2.51172v-2.65088a35.93564 35.93564 0 0 0 8.2655-52.17138l5.22693-52.26831a63.729 63.729 0 0 1 19.41821 37.47534zm-52.91064 17.04785a20 20 0 1 1 -20 20 20.0226 20.0226 0 0 1 20-20zm19.16016-72-5.856 58.55884a35.86574 35.86574 0 0 0 -26.6084 0l-5.85592-58.55884zm-76.41358 18.74707a63.93275 63.93275 0 0 1 22.43225-14.55835l5.86609 58.66089-41.73192-24.34595a64.32783 64.32783 0 0 1 13.43358-19.75659zm2.04932 148.13574-21.44238-50.03418a7.9973 7.9973 0 0 0 -3.77588-4.0039l-9.79395-4.89746 13.80567-41.417a8.002 8.002 0 0 0 .41064-2.53027 64.472 64.472 0 0 1 .72705-9.64795l41.8125 24.39282a35.97785 35.97785 0 0 0 33.46045 49.25513 36.19361 36.19361 0 0 0 4-.22754v11.22754a7.99967 7.99967 0 0 0 12.23926 6.78418l6.683-4.176 4.34 43.42164-36.54773 4.56835-8.12171 1.01514 4.63086-18.52344 6.43311-6.43261a8.00018 8.00018 0 1 0 -11.31348-11.31446l-6.2876 6.28809zm-30.26367 169.27832a72.35327 72.35327 0 0 1 12.646-69.8789l48.94677-58.73535 44.83276-5.604a341.66205 341.66205 0 0 0 -42.53613 163.48364l-8.95142 2.98365c-.06616.022-.12792.05249-.19323.07617-.08264.03-.16614.053-.24817.08594l-9.37451 3.75a72.47057 72.47057 0 0 0 -26.17139 17.98437zm51.06445 51.0166 2.54-1.01562 14.91898 29.83789h-47.78955a56.68184 56.68184 0 0 1 30.33057-28.82227zm38.40332 60.82227h-72v-16h63.985l.014.001.01416-.001h7.98684zm72.76025 0h-56.76025v-22.53687l60.74939-17.35693zm23.23975-62.03418-99.814 28.51758-16.90528-33.81055 63.249-21.083a8.00071 8.00071 0 0 0 5.47028-7.58985v-72h-16v66.23438l-41.5033 13.834a325.70758 325.70758 0 0 1 45.0553-158.45144l5.74634 1.91529a79.89812 79.89812 0 0 1 54.70166 75.89453z"/><path d="m328 112h-8a8 8 0 0 0 0 16h8a8 8 0 0 0 0-16z"/><path d="m217.94043 448.23926-64-16a7.97509 7.97509 0 0 0 -1.94043-.23926h-24v-32h112a24.0275 24.0275 0 0 0 24-24v-144a24.0275 24.0275 0 0 0 -24-24h-200a24.0275 24.0275 0 0 0 -24 24v144a24.0275 24.0275 0 0 0 24 24h24v32h-40a8.00008 8.00008 0 0 0 -8 8v48a8.00008 8.00008 0 0 0 8 8h192a8.00008 8.00008 0 0 0 8-8v-32a7.9992 7.9992 0 0 0 -6.05957-7.76074zm30.05957-216.23926v144a8.00917 8.00917 0 0 1 -8 8h-9.37622a23.88238 23.88238 0 0 0 1.37622-8v-144a23.88238 23.88238 0 0 0 -1.37622-8h9.37622a8.00917 8.00917 0 0 1 8 8zm-208 152a8.00917 8.00917 0 0 1 -8-8v-144a8.00917 8.00917 0 0 1 8-8h168a8.00917 8.00917 0 0 1 8 8v144a8.00917 8.00917 0 0 1 -8 8h-80v-24a8.00008 8.00008 0 0 0 -8-8h-48a8.00008 8.00008 0 0 0 -8 8v24zm40-16h32v64h-32zm-48 80h112v32h-112zm176 32h-48v-29.75391l48 12z"/></g></svg>