<svg id="Capa_1" enable-background="new 0 0 511.998 511.998" height="50" viewBox="0 0 511.998 511.998" width="50" xmlns="http://www.w3.org/2000/svg"><g><g><path d="m324.505 382.627-78.039 10.685-22.251-10.685h-46.03l-7.5 6.438-7.5-6.438h-57.423c-8.284 0-15 6.716-15 15v30.891c0 8.284 6.716 15 15 15h218.743c8.284 0 15-6.716 15-15v-30.891c0-8.284-6.716-15-15-15z" fill="#ffe07d"/><path d="m339.505 425.52v3c0 8.28-6.72 15-15 15l-124.43 9.682-94.31-9.682c-8.29 0-15-6.72-15-15v-30.89c0-8.29 6.71-15 15-15h3v34.89c0 4.42 3.58 8 8 8z" fill="#ffd064"/><path d="m324.505 260.86h-60.32l-6.914 8.768-8.086-8.768h-71l-9.246 8.768-5.754-8.768h-54.42l-3.436 3.424c-8.284 0-11.89 4.046-11.89 12.33l3.083 27.743c0 8.284.957 17.393 9.241 17.393l94.313 12.992 124.43-12.992c8.284 0 15-6.716 15-15v-30.89c-.001-8.284-6.717-15-15.001-15z" fill="#ffe07d"/><path d="m339.505 303.75v3c0 8.29-6.72 15-15 15h-218.74c-8.29 0-15-6.71-15-15v-30.89c0-8.28 6.71-15 15-15h3v34.89c0 4.42 3.58 8 8 8z" fill="#ffd064"/><path d="m300.996 321.736h-72.891l-8.108 5.081-6.892-5.081h-71l-5.732 5.081-9.268-5.081h-51.25l-3.114 4.2c-8.284 0-12.771 3.606-12.771 11.89l1.761 30.826c0 8.284 2.838 13.976 11.122 13.976h44.364l64.707 10.685 119.071-10.685c8.284 0 15-6.716 15-15v-30.891c.001-8.285-6.715-15.001-14.999-15.001z" fill="#ffe07d"/><path d="m315.995 364.63v3c0 8.28-6.71 15-15 15h-228.14c-8.29 0-15-6.72-15-15v-30.89c0-8.284 6.716-15 15-15h3v34.89c0 4.418 3.582 8 8 8z" fill="#ffd064"/><path d="m287.202 78.901-60.966-65.422-2.698-2.895c-3.945-4.234-10.338-1.102-14.283 3.132l-61.211 66.495c-5.935 6.368-2.989 13.651 5.725 13.651l20.501 1.776c2.754 0 7.655 1.384 7.655 4.133v46.054c0 5.499 2.005 6.606 7.514 6.606l10.636 4.196h43.163c5.509 0 9.974-4.458 9.974-9.956v-46.054c0-2.749 2.233-4.978 4.987-4.978h21.699c8.714 0 13.239-10.369 7.304-16.738z" fill="#94d4a2"/><path d="m200.075 156.63h-10.84c-5.51 0-9.98-4.46-9.98-9.96v-46.05c0-2.75-2.23-4.98-4.99-4.98h20c2.76 0 4.99 2.23 4.99 4.98v52.05c0 1.41.29 2.74.82 3.96z" fill="#7fcb8f"/><path d="m172.575 95.64h-20c-8.72 0-13.24-10.37-7.31-16.74l63.67-68.32c3.94-4.23 10.66-4.23 14.6 0l2.7 2.9-60.97 65.42c-5.006 5.377-2.565 13.605 3.563 16.039 1.131.449 2.388.701 3.747.701z" fill="#7fcb8f"/><path d="m241.466 229.518-49.541-1.784c-5.523 0-10-4.477-10-10v-17.759c0-5.523 4.477-10 10-10l7.3-3.285h44.015c5.523 0 10 4.477 10 10v14l-1.774 8.828c0 5.523-4.477 10-10 10z" fill="#94d4a2"/><path d="m253.235 210.69v10c0 5.52-4.47 10-10 10h-54.01c-5.52 0-10-4.48-10-10v-24c0-5.52 4.48-10 10-10h10v19c0 2.76 2.24 5 5 5z" fill="#7fcb8f"/><path d="m332.572 443.518h-104.467l-7.088 5.17-7.902-5.17h-71.01l-6.752 5.17-8.238-5.17h-54.261c-8.284 0-15 6.716-15 15v30.891c0 8.284 126.163 5.188 134.447 5.188l155.271 9.812v-45.891c0-8.284-6.716-15-15-15z" fill="#ffe07d"/><path d="m347.575 486.41v18h-274.72c-8.284 0-15-6.716-15-15v-30.89c0-8.284 6.716-15 15-15h3v34.89c0 4.418 3.582 8 8 8z" fill="#ffd064"/><path d="m347.575 458.52v45.89h-65.55c-22.72-14.24-40.56-35.58-50.39-60.89-5.44-14-8.42-29.21-8.42-45.11 0-5.34.34-10.61 1-15.78 2.87-22.76 11.89-43.62 25.34-60.88v-.01c21.19-27.21 53.37-45.46 89.8-48.02.1.7.15 1.41.15 2.14v30.89c0 8.29-6.72 15-15 15h-23.12c8.11.2 14.61 6.83 14.61 14.99v30.89c0 8.28-6.71 15-15 15h23.51c8.28 0 15 6.71 15 15v30.89c0 8.28-6.72 15-15 15h8.07c8.28 0 15 6.71 15 15z" fill="#ffd064"/><path d="m454.216 398.409c0-58.542-47.458-106-106-106-25.097 0-48.156 8.722-66.313 23.299-24.197 19.427-35.437 48.247-35.437 81.693 0 58.542 45.333 103.471 103.875 103.471 40.706 0 73.928-19.408 91.688-53.07 7.781-14.75 12.187-31.557 12.187-49.393z" fill="#7fcb8f"/><path d="m442.025 447.8c-17.76 33.67-53.11 56.61-93.81 56.61-58.54 0-106-47.46-106-106 0-35.03 16.99-66.09 43.19-85.39-7.79 14.75-12.19 31.55-12.19 49.39 0 58.54 47.46 106 106 106 23.51 0 45.23-7.66 62.81-20.61z" fill="#71bf7e"/><path d="m423.96 398.409c0-41.833-33.912-75.745-75.745-75.745-35.53 0-65.346 24.463-73.524 57.465-1.451 5.854-.482 11.977-.482 18.28 0 41.833 32.885 73.729 74.717 73.729 10.281 0 19.372-.032 28.31-3.743 27.432-11.388 46.724-38.434 46.724-69.986z" fill="#94d4a2"/><path d="m377.235 468.39c-8.94 3.71-18.74 5.76-29.02 5.76-41.83 0-75.74-33.91-75.74-75.74 0-6.3.77-12.43 2.22-18.28 8.32 49.47 50.93 87.32 102.54 88.26z" fill="#7fcb8f"/></g><g><g><path d="m152.517 103.191h19.19v43.515c0 9.622 7.84 17.45 17.477 17.45h54.016c9.637 0 17.477-7.828 17.477-17.45v-43.515h19.19c7.07 0 13.212-4.022 16.03-10.496 2.813-6.464 1.573-13.685-3.237-18.843l-63.676-68.292c-3.295-3.533-7.957-5.56-12.792-5.56s-9.498 2.027-12.792 5.56l-20.886 22.4c-2.824 3.029-2.657 7.773.374 10.596s7.778 2.656 10.602-.373l20.886-22.4c.639-.686 1.413-.788 1.817-.788s1.177.102 1.817.788l63.675 68.291c.904.97.747 1.971.456 2.64-.241.554-.857 1.482-2.272 1.482h-21.703c-6.887 0-12.49 5.596-12.49 12.474v46.036c0 1.354-1.11 2.456-2.475 2.456h-54.016c-1.365 0-2.475-1.102-2.475-2.456v-46.036c0-6.878-5.603-12.474-12.49-12.474h-21.703c-1.416 0-2.032-.929-2.272-1.482-.292-.669-.449-1.67.456-2.64l18.828-20.193c2.825-3.03 2.657-7.773-.374-10.596-3.03-2.822-7.777-2.656-10.602.373l-18.828 20.193c-4.81 5.159-6.051 12.379-3.238 18.843 2.817 6.475 8.959 10.497 16.03 10.497z"/><path d="m243.201 179.221h-54.02c-9.651 0-17.503 7.852-17.503 17.503v24.004c0 9.651 7.852 17.503 17.503 17.503h54.02c9.651 0 17.503-7.852 17.503-17.503v-24.004c0-9.651-7.852-17.503-17.503-17.503zm2.501 41.507c0 1.379-1.122 2.5-2.5 2.5h-54.02c-1.379 0-2.5-1.122-2.5-2.5v-24.004c0-1.379 1.122-2.5 2.5-2.5h54.02c1.379 0 2.5 1.122 2.5 2.5z"/><path d="m348.196 284.958c-.405 0-.807.011-1.211.015v-9.065c0-12.409-10.095-22.504-22.504-22.504h-12.578c-4.143 0-7.501 3.358-7.501 7.501s3.359 7.501 7.501 7.501h12.578c4.136 0 7.501 3.365 7.501 7.501v10.213c-22.839 3.281-43.505 13.38-59.857 28.169h-7.97v-45.883h12.699c4.143 0 7.501-3.359 7.501-7.501s-3.358-7.501-7.501-7.501h-171.154c-12.409 0-22.504 10.095-22.504 22.504v30.896c0 2.624.456 5.142 1.285 7.486h-11.695c-12.409 0-22.504 10.095-22.504 22.504v30.896c0 12.409 10.095 22.504 22.504 22.504h11.7c-.833 2.348-1.29 4.872-1.29 7.501v30.897c0 2.63.458 5.153 1.29 7.501h-11.7c-12.409 0-22.504 10.095-22.504 22.504v30.896c0 12.409 10.095 22.504 22.504 22.504h274.766c.044 0 .086-.006.13-.007.172.001.342.007.514.007 37.421 0 72.426-18.439 93.638-49.325 2.346-3.415 1.479-8.085-1.936-10.43-3.414-2.345-8.084-1.478-10.43 1.936-18.413 26.81-48.795 42.816-81.271 42.816-54.322 0-98.517-44.195-98.517-98.517s44.195-98.517 98.517-98.517 98.517 44.195 98.517 98.517c0 8.858-1.174 17.637-3.49 26.093-1.094 3.996 1.258 8.122 5.253 9.216s8.122-1.258 9.216-5.253c2.67-9.748 4.024-19.86 4.024-30.056-.002-62.594-50.927-113.519-113.521-113.519zm-170.056-16.551h71.012v45.883h-71.012zm62.95 167.687h-62.95v-45.899h56.84c-.198 2.736-.304 5.497-.304 8.283 0 13.179 2.265 25.838 6.414 37.616zm-28.025-60.902h-71.012v-45.899h71.012zm-49.928 15.003v45.899h-57.437c-4.136 0-7.501-3.365-7.501-7.501v-30.897c0-4.136 3.365-7.501 7.501-7.501zm-64.939-114.287c0-4.136 3.365-7.501 7.501-7.501h57.437v45.883h-57.746c-3.993-.163-7.193-3.453-7.193-7.486v-30.896zm-25.412 99.284c-4.136 0-7.501-3.365-7.501-7.501v-30.896c0-4.136 3.365-7.501 7.501-7.501h32.298c.205.006.409.016.615.016.105 0 .206-.011.31-.016h21.04v45.899h-54.263zm54.264 121.803h-54.264c-4.136 0-7.501-3.365-7.501-7.501v-30.896c0-4.136 3.365-7.501 7.501-7.501h54.263v45.898zm86.015 0h-71.012v-45.899h71.012zm78.776 0h-63.773v-45.899h19.565c10.073 19.175 25.464 35.136 44.208 45.899zm-54.759-121.803h-9.014v-45.899h30.193c-10.247 13.289-17.621 28.9-21.179 45.899z"/><path d="m281.57 413.383c-.9-4.044-4.907-6.592-8.952-5.692-4.044.9-6.592 4.908-5.692 8.952 4.05 18.189 14.291 34.708 28.838 46.514 14.763 11.982 33.384 18.58 52.432 18.58 45.909 0 83.259-37.35 83.259-83.259s-37.35-83.259-83.259-83.259c-38.156 0-71.344 25.8-80.71 62.74-1.018 4.016 1.412 8.097 5.428 9.115 4.018 1.018 8.097-1.412 9.115-5.428 7.676-30.278 34.885-51.425 66.167-51.425 37.637 0 68.257 30.62 68.257 68.257s-30.62 68.256-68.257 68.256c-31.724.001-59.744-22.437-66.626-53.351z"/><path d="m347.713 424.895c-6.797.049-8.737-.262-13.891-3.634-3.466-2.268-8.116-1.297-10.384 2.171-2.268 3.467-1.296 8.116 2.171 10.384 5.724 3.744 9.94 5.257 15.085 5.805v4.354c0 4.143 3.358 7.501 7.501 7.501s7.501-3.359 7.501-7.501v-5.287c10.149-3.171 16.64-12.105 18.123-20.921 2-11.9-4.453-22.652-16.059-26.755-6.33-2.238-13.327-4.937-17.224-7.993-1.108-.869-1.576-2.916-1.166-5.094.208-1.104 1.178-4.794 4.925-5.922 7.268-2.19 12.064 1.45 12.587 1.873 3.223 2.602 7.946 2.099 10.549-1.124 2.602-3.224 2.099-7.946-1.124-10.549-2.635-2.128-6.29-4.039-10.61-5.076v-4.146c0-4.143-3.359-7.501-7.501-7.501s-7.501 3.359-7.501 7.501v4.464c-.243.067-.482.119-.726.193-7.874 2.372-13.753 9.081-15.341 17.509-1.464 7.771 1.084 15.311 6.651 19.677 4.517 3.543 10.741 6.537 21.482 10.333 6.786 2.399 6.641 7.878 6.264 10.122-.774 4.601-4.643 9.571-11.312 9.616z"/></g></g></g></svg>