<svg height="40pt" viewBox="0 -2 512 512" width="40pt" xmlns="http://www.w3.org/2000/svg"><path d="m299.277344 437.011719v7.726562c0 20.035157-16.398438 36.425781-36.4375 36.425781h-204.636719c-20.046875 0-36.433594-16.390624-36.433594-36.425781v-7.726562c0-20.035157 16.386719-36.433594 36.433594-36.433594h204.636719c14.136718 0 26.449218 8.15625 32.488281 19.984375 2.523437 4.953125 3.949219 10.546875 3.949219 16.449219zm0 0" fill="#ffb52d"/><path d="m299.277344 437.011719v7.726562c0 20.035157-16.398438 36.425781-36.4375 36.425781h-199.765625c-2.523438-4.953124-3.949219-10.546874-3.949219-16.453124v-7.710938c0-20.039062 16.398438-36.4375 36.433594-36.4375h199.769531c2.523437 4.953125 3.949219 10.546875 3.949219 16.449219zm0 0" fill="#ffc14f"/><path d="m309.605469 507.789062h-298.171875c-6.289063 0-11.433594-5.148437-11.433594-11.433593v-17.628907c0-6.289062 5.144531-11.433593 11.433594-11.433593h298.171875c6.289062 0 11.433593 5.144531 11.433593 11.433593v17.628907c0 6.285156-5.144531 11.433593-11.433593 11.433593zm0 0" fill="#ffa90b"/><path d="m372.882812 361.246094c-.628906.972656-1.375 1.890625-2.222656 2.75l-2.398437 2.398437c-6.597657 6.597657-17.402344 6.597657-23.996094 0l-180.019531-180.019531c-6.597656-6.597656-6.597656-17.402344 0-23.996094l2.398437-2.398437c3.140625-3.15625 7.257813-4.800781 11.402344-4.945313 4.550781-.164062 9.152344 1.488282 12.605469 4.945313l180.007812 180.007812c5.761719 5.757813 6.492188 14.679688 2.222656 21.257813zm0 0" fill="#f29500"/><path d="m372.882812 361.246094c-4.539062.164062-9.140624-1.488282-12.59375-4.941406l-180.019531-180.019532c-5.746093-5.75-6.480469-14.683594-2.222656-21.25 4.550781-.164062 9.152344 1.488282 12.605469 4.945313l180.007812 180.007812c5.761719 5.757813 6.492188 14.679688 2.222656 21.257813zm0 0" fill="#ffa90b"/><path d="m124.097656 312.226562-92.414062-92.414062 188.269531-188.269531 92.414063 92.414062zm0 0" fill="#ffc14f"/><path d="m219.953125 31.539062 60.683594 60.683594-82.960938 82.964844c-23.59375 23.589844-61.839843 23.589844-85.433593 0l-17.96875-17.96875zm0 0" fill="#ffcd71"/><path d="m195.699219 58.875 89.339843 89.339844c13.421876 13.421875 35.386719 13.421875 48.808594 0s13.421875-35.382813 0-48.808594l-89.34375-89.339844c-13.421875-13.421875-35.382812-13.421875-48.804687 0-13.425781 13.421875-13.425781 35.386719 0 48.808594zm0 0" fill="#ffa90b"/><path d="m14.335938 240.234375 89.34375 89.339844c13.421874 13.421875 35.382812 13.421875 48.808593 0 13.421875-13.421875 13.421875-35.382813 0-48.804688l-89.34375-89.34375c-13.421875-13.421875-35.382812-13.421875-48.808593 0-13.417969 13.421875-13.417969 35.386719 0 48.808594zm0 0" fill="#ffa90b"/><path d="m382.511719 311.023438 115.636719 115.632812c5.175781 5.179688 8.902343 11.261719 11.152343 17.769531 1.804688 5.109375 2.699219 10.480469 2.699219 15.847657 0 12.167968-4.621094 24.355468-13.867188 33.601562-18.472656 18.472656-48.726562 18.472656-67.203124 0l-115.632813-115.636719c-2.941406-2.941406-2.941406-7.710937 0-10.652343l56.550781-56.550782c2.953125-2.953125 7.722656-2.953125 10.664063-.011718zm0 0" fill="#ae583e"/><path d="m382.511719 311.023438 115.636719 115.632812c5.175781 5.179688 8.902343 11.261719 11.152343 17.769531-1.070312 1.34375-2.207031 2.617188-3.441406 3.851563-18.488281 18.488281-48.714844 18.488281-67.203125 0l-102.027344-102.027344 35.214844-35.214844c2.957031-2.953125 7.726562-2.953125 10.667969-.011718zm0 0" fill="#c0694e"/></svg>