<svg id="Layer_1" height="50" viewBox="0 0 512 512" width="50" xmlns="http://www.w3.org/2000/svg" data-name="Layer 1"><path d="m408 337.68c-.27-.69-.5-1.37-.8-2.04a60.634 60.634 0 0 0 -35.9-32.4l-9.129-3.16a324.3 324.3 0 0 0 -42.824-11.59q-12.135-2.415-24.387-3.89l-77.447.4c-8.32 1-16.61 2.07-24.86 3.71a323.94 323.94 0 0 0 -42.833 11.49l-9.14 3.1c-15.9 5.49-29.15 17.042-35.93 32.372-.3.67-.484 1.335-.754 2.025a60.165 60.165 0 0 0 -4 22.346v134.957h312.004v-134.96a60.237 60.237 0 0 0 -4-22.36z" fill="#546ac7"/><path d="m217.51 285c-8.32 1-16.61 2.07-24.86 3.71a323.94 323.94 0 0 0 -42.83 11.49l-9.14 3.1c-15.9 5.49-29.15 17.042-35.93 32.372-.3.67-.484 1.335-.754 2.025a60.165 60.165 0 0 0 -4 22.346v134.957h30v-134.96a60.165 60.165 0 0 1 4-22.346c.27-.69.454-1.355.754-2.025 6.78-15.33 20.03-26.882 35.93-32.372l9.14-3.1a323.94 323.94 0 0 1 42.83-11.485z" fill="#4a61a8"/><path d="m332.67 111.03a78.158 78.158 0 0 1 1.42 21.2l-1.93 27.8c-27.76-2.95-34.92-31.85-34.92-31.85-36.7-2.24-55.97-9.49-68.04-23.58-8.56-9.96-13.52-23.34-18.53-40.8a1.819 1.819 0 0 0 -.16-.31s.2-.13.57-.36c5.15-3.13 43.93-25.35 78.43-6.7a116.555 116.555 0 0 1 11.51 7.05 76.979 76.979 0 0 1 16.41 15.1 77.837 77.837 0 0 1 15.24 32.45z" fill="#9e6c52"/><path d="m301.72 62.32-.7 1.16a116.555 116.555 0 0 0 -11.51-7.05c-34.5-18.65-73.28 3.57-78.43 6.7l-.38-.81a45.51 45.51 0 0 1 91.02 0z" fill="#ba8e75"/><path d="m229.2 104.6-.01.01c-15.76 6.22-38.4 20.95-49.3 55.47l-1.93-27.85a77.664 77.664 0 0 1 32.55-68.74 1.819 1.819 0 0 1 .16.31c5.01 17.46 9.97 30.84 18.53 40.8z" fill="#ba8e75"/><path d="m294.96 284.6-.46-.02a33.085 33.085 0 0 1 -10.16 22.25l-28.34 27.12 54.11 24.55 9.08-69.17.16-.84q-12.135-2.415-24.39-3.89z" fill="#bfc7e9"/><path d="m283.46 346.41-.24.54-8.45 28.18h-.03l-35.42-.56h-.03l-7.24-29.75 23.95-10.87z" fill="#eb6141"/><path d="m281.94 494.65v.35h-41.6l39.48-35.53z" fill="#eb6141"/><path d="m277.56 422.01 2.26 37.46-39.48 35.53h-12.08v-.68l2.82-30.48z" fill="#f3e08c"/><path d="m275.31 384.55 2.25 37.46-46.48 41.83 3.97-43.07h.01z" fill="#eb6141"/><path d="m274.74 375.13.57 9.42-40.25 36.22h-.01l4.27-46.2z" fill="#f3e08c"/><path d="m227.73 307.05a33.367 33.367 0 0 1 -10.14-22.05h-.08c-8.32 1-16.61 2.07-24.86 3.71l.16.735 9.08 69.113 54.11-24.464z" fill="#bfc7e9"/><path d="m218 253-.189 31.54a32.921 32.921 0 0 0 10.03 22.28l28.214 27.13 28.312-27.12a33.326 33.326 0 0 0 10.377-22.25l.256-31.58z" fill="#e2b7a6"/><path d="m349.52 170.57a18.752 18.752 0 0 1 -18.29 23.22h-1.27a73.98 73.98 0 0 1 -147.86 0h-1.33a18.752 18.752 0 0 1 -18.29-23.22c1.96-7.96 9.72-11.77 16.82-10.43h.59v-.06c10.9-34.52 33.54-49.25 49.3-55.47l.01-.01c12.07 14.09 31.34 21.34 68.04 23.58 0 0 7.16 28.9 34.92 31.85v.01h.54a14.357 14.357 0 0 1 16.82 10.53z" fill="#ffccb3"/><path d="m122.352 468.728a6 6 0 0 1 -6-6v-66.616a6 6 0 0 1 12 0v66.616a6 6 0 0 1 -6 6z" fill="#f4f8fc"/><path d="m122.352 384.353a6 6 0 0 1 -6-6v-3.2a6 6 0 0 1 12 0v3.2a6 6 0 0 1 -6 6z" fill="#f4f8fc"/><path d="m162.647 493.352-4.181-14.637a95.194 95.194 0 0 1 3.932-63.247 6 6 0 1 0 -11.041-4.7 107.231 107.231 0 0 0 -4.43 71.245l3.711 12.987h12.236a5.948 5.948 0 0 0 -.227-1.648z" fill="#445aa0"/><path d="m365.684 482.012a107.231 107.231 0 0 0 -4.431-71.245l-11.041 4.7a95.188 95.188 0 0 1 3.933 63.247l-4.182 14.637a5.985 5.985 0 0 0 -.227 1.648h12.237z" fill="#445aa0"/><path d="m247.92 254.49a73.563 73.563 0 0 1 -35.82-60.7l-.916-13.976a74.707 74.707 0 0 1 28.316-63.988q.745-.579 1.49-1.129a50.518 50.518 0 0 1 -11.79-10.097l-.01.01c-15.76 6.22-38.4 20.95-49.3 55.47v.06h-.59c-7.1-1.34-14.86 2.47-16.82 10.43a18.752 18.752 0 0 0 18.29 23.22h1.33a73.835 73.835 0 0 0 73.93 71.21 74.483 74.483 0 0 0 14.991-1.521 73.755 73.755 0 0 1 -23.101-8.989z" fill="#e5b6a3"/></svg>